<svg id="图层_1" data-name="图层 1" xmlns="http://www.w3.org/2000/svg" viewBox="0 0 841.89 595.28"><defs><style>.cls-1{fill:#293e57;}</style></defs><path class="cls-1" d="M418.5,418.62a1.5,1.5,0,0,1-.76-.21l-.16-.1a110.07,110.07,0,0,0-26.94-13.78,100.41,100.41,0,0,0-34-5.49,1.51,1.51,0,0,1-1.5-1.48,1.49,1.49,0,0,1,1.46-1.52,104.19,104.19,0,0,1,35,5.65,112.75,112.75,0,0,1,26.89,13.63,112.76,112.76,0,0,1,26.75-13.53c12.05-4.14,22.8-6,33.82-5.87a1.5,1.5,0,0,1,0,3h0c-10.65-.13-21.1,1.68-32.83,5.71a109.65,109.65,0,0,0-26.85,13.73A1.44,1.44,0,0,1,418.5,418.62Z"/><path class="cls-1" d="M418.85,426.16a1.5,1.5,0,0,1-.76-.21l-.16-.1A110.42,110.42,0,0,0,391,412.07c-12.74-4.38-24.76-6.19-36.75-5.52a1.5,1.5,0,0,1-.16-3c12.38-.7,24.76,1.16,37.87,5.68a112.34,112.34,0,0,1,26.89,13.62,112.76,112.76,0,0,1,26.75-13.53c13-4.47,24.8-6.5,36.08-6.23a1.5,1.5,0,0,1,0,3h0c-10.94-.27-22.4,1.72-35.06,6.07a109.65,109.65,0,0,0-26.85,13.73A1.44,1.44,0,0,1,418.85,426.16Z"/><path class="cls-1" d="M377.28,295l-1.74,2.35,6.76,5.14a1.52,1.52,0,0,1,.58,1,1.46,1.46,0,0,1-.29,1.12l-5.49,7.31,3.73,2.82,5.41-7.2a1.48,1.48,0,0,1,2.07-.29l4.56,3.47a1.52,1.52,0,0,1,.29,2.12L388,319.68l2.43,1.85,5-6.73a1.49,1.49,0,0,1,2.08-.29c5.37,4.14,10.4,8.05,15.25,11.86a4.5,4.5,0,0,1,.37.28c.7.54,1.39,1.08,2.06,1.62l-2.46,1.87L411.41,329l-1-.79c-4.29-3.37-8.72-6.83-13.4-10.43l-5.05,6.73a1.46,1.46,0,0,1-2.06.29l-4.81-3.65a1.52,1.52,0,0,1-.58-1,1.55,1.55,0,0,1,.29-1.13l5.13-6.82-2.21-1.67-5.4,7.2a1.48,1.48,0,0,1-2.07.29l-6.09-4.64a1.47,1.47,0,0,1-.58-1,1.51,1.51,0,0,1,.29-1.11l5.49-7.31-6.79-5.15a1.54,1.54,0,0,1-.57-1,1.56,1.56,0,0,1,.29-1.11l3.55-4.73a1.45,1.45,0,0,1,2.06-.29l40.28,30.59,2.47,1.88-2.47,1.87-2.47-1.87Z"/><path class="cls-1" d="M439.91,348.89a1.5,1.5,0,0,1-1.21.62,1.56,1.56,0,0,1-.86-.27l-.82-.62h0c-6.57-4.83-12.67-9.52-18.85-14.33l-2.43-1.9,2.46-1.88c.8.65,1.61,1.29,2.43,1.91,5.85,4.56,11.67,9,17.89,13.59l1.08.79A1.51,1.51,0,0,1,439.91,348.89Z"/><path class="cls-1" d="M444.1,343.91a1.46,1.46,0,0,1-2.07.3l-1.27-1-17.21-13.07-2.46-1.87,1.35-1,1.07-.87,2.45,1.85,17.09,13,.76.59A1.5,1.5,0,0,1,444.1,343.91Z"/><path class="cls-1" d="M455.3,378.34a20.25,20.25,0,0,1-12.3-4.15,22.84,22.84,0,0,1-4.72-5,20.69,20.69,0,0,1-3.38-12.53h0a20.51,20.51,0,0,1,.94-5.16,23.16,23.16,0,0,1,3.18-6.18,20.45,20.45,0,0,1,36.64,9.56,20.62,20.62,0,0,1-20.36,23.5Zm-17.44-21.56A18.1,18.1,0,0,0,439.4,365a17.74,17.74,0,0,0,1.34,2.46,20.46,20.46,0,0,0,4,4.3,17.48,17.48,0,0,0,24.56-3.46,17.67,17.67,0,0,0,3.38-13.07,17.49,17.49,0,0,0-31.34-8.16,20.25,20.25,0,0,0-2.72,5.27,17.85,17.85,0,0,0-.8,4.41Z"/><path class="cls-1" d="M455.44,371.73a13.53,13.53,0,0,1-8.77-3.22A13.82,13.82,0,0,1,445,349.13a15.43,15.43,0,0,1,2.73-2.49,13.52,13.52,0,0,1,2.73-1.46h0a13.72,13.72,0,0,1,6.43-.87,13.51,13.51,0,0,1,4.28,1.19,15.16,15.16,0,0,1,3.06,2,13.76,13.76,0,0,1-8.83,24.27ZM451.57,348a10.4,10.4,0,0,0-2.13,1.14,12.14,12.14,0,0,0-2.14,1.95,10.78,10.78,0,0,0,1.28,15.14,10.65,10.65,0,0,0,15.06-1.31,10.76,10.76,0,0,0,2.48-7.85,10.63,10.63,0,0,0-3.75-7.29,12.43,12.43,0,0,0-2.4-1.54,10.7,10.7,0,0,0-3.35-.93,10.94,10.94,0,0,0-5.05.69Z"/><path class="cls-1" d="M534,193.85a1.41,1.41,0,0,1-.6-.13l-34.52-15.33a1.51,1.51,0,0,1-.89-1.4,1.49,1.49,0,0,1,.94-1.37l34.53-13.79a1.44,1.44,0,0,1,1.08,0L569,175.62A1.49,1.49,0,0,1,570,177a1.51,1.51,0,0,1-.89,1.4l-34.53,15.33A1.37,1.37,0,0,1,534,193.85Zm-30.68-16.76L534,190.71l30.67-13.62L534,164.83Z"/><path class="cls-1" d="M533.24,199.87A47.6,47.6,0,0,1,514.41,196a1.49,1.49,0,0,1-.91-1.38V185a1.48,1.48,0,1,1,3,0v8.57a44.71,44.71,0,0,0,33.59,0V185a1.48,1.48,0,1,1,3,0v9.57a1.49,1.49,0,0,1-.91,1.38,47.56,47.56,0,0,1-17.65,3.87Z"/><path class="cls-1" d="M524.83,234.15a16.39,16.39,0,0,1-9.58-2.86c-6.59-4.67-7.27-13.32-7.49-16.16a28.18,28.18,0,0,1,.05-4.76,36.59,36.59,0,0,1,5.93-16.59,1.48,1.48,0,0,1,2-.43,1.5,1.5,0,0,1,.43,2.07,33.53,33.53,0,0,0-5.46,15.22,25.22,25.22,0,0,0-.05,4.25c.21,2.76.79,10.09,6.23,14A14.54,14.54,0,0,0,527,231a1.48,1.48,0,0,1,1.66,1.29A1.49,1.49,0,0,1,527.4,234,20.5,20.5,0,0,1,524.83,234.15Z"/><path class="cls-1" d="M535.75,302.58a1.47,1.47,0,0,1-.86-.28,1.51,1.51,0,0,1-.34-2.09l4.52-6.42a9.69,9.69,0,0,0,0-11.1,12.69,12.69,0,0,1,0-14.58,9.69,9.69,0,0,0,0-11.1,12.69,12.69,0,0,1,0-14.58,9.69,9.69,0,0,0,0-11.1,12.69,12.69,0,0,1,0-14.58,9.69,9.69,0,0,0,0-11.1l-4.52-6.42a1.52,1.52,0,0,1,.34-2.1,1.47,1.47,0,0,1,2.07.36l4.52,6.42a12.73,12.73,0,0,1,0,14.58,9.65,9.65,0,0,0,0,11.1,12.73,12.73,0,0,1,0,14.58,9.65,9.65,0,0,0,0,11.1,12.73,12.73,0,0,1,0,14.58,9.65,9.65,0,0,0,0,11.1,12.73,12.73,0,0,1,0,14.58L537,302A1.47,1.47,0,0,1,535.75,302.58Z"/><path class="cls-1" d="M545,302.58a1.45,1.45,0,0,1-.86-.28,1.51,1.51,0,0,1-.34-2.09l4.51-6.42a9.65,9.65,0,0,0,0-11.1,12.73,12.73,0,0,1,0-14.58,9.65,9.65,0,0,0,0-11.1,12.73,12.73,0,0,1,0-14.58,9.65,9.65,0,0,0,0-11.1,12.73,12.73,0,0,1,0-14.58,9.65,9.65,0,0,0,0-11.1l-4.51-6.42a1.52,1.52,0,0,1,.34-2.1,1.47,1.47,0,0,1,2.07.36l4.51,6.42a12.69,12.69,0,0,1,0,14.58,9.69,9.69,0,0,0,0,11.1,12.69,12.69,0,0,1,0,14.58,9.69,9.69,0,0,0,0,11.1,12.69,12.69,0,0,1,0,14.58,9.69,9.69,0,0,0,0,11.1,12.69,12.69,0,0,1,0,14.58L546.19,302A1.49,1.49,0,0,1,545,302.58Z"/><path class="cls-1" d="M553.6,302.58a1.45,1.45,0,0,1-.86-.28,1.51,1.51,0,0,1-.35-2.09l4.52-6.42a9.69,9.69,0,0,0,0-11.1,12.69,12.69,0,0,1,0-14.58,9.69,9.69,0,0,0,0-11.1,12.69,12.69,0,0,1,0-14.58,9.69,9.69,0,0,0,0-11.1,12.69,12.69,0,0,1,0-14.58,9.69,9.69,0,0,0,0-11.1l-6.59-9.37a1.51,1.51,0,0,1,.35-2.09,1.46,1.46,0,0,1,2.06.35l6.59,9.37a12.69,12.69,0,0,1,0,14.58,9.67,9.67,0,0,0,0,11.1,12.69,12.69,0,0,1,0,14.58,9.67,9.67,0,0,0,0,11.1,12.69,12.69,0,0,1,0,14.58,9.67,9.67,0,0,0,0,11.1,12.69,12.69,0,0,1,0,14.58L554.8,302A1.45,1.45,0,0,1,553.6,302.58Z"/><path class="cls-1" d="M553.6,302.58H526.09a1.5,1.5,0,0,1,0-3H553.6a1.5,1.5,0,0,1,0,3Z"/><path class="cls-1" d="M518.83,283c.42,1,.81,2,1.18,3.05a10.83,10.83,0,0,1-2.56,1.69c-.33-1-.68-1.93-1-2.84-.52-1.31-1-2.52-1.63-3.64-.31-.61-.63-1.21-1-1.82-2.1-3.93-4.49-8.38-3.34-13.72a11.63,11.63,0,0,1,1.87-4.16c.74-1.23,1.74-2.88,3.27-5.79,2.65-5,4-7.58,4.88-10.88a31,31,0,0,0,.81-12.12,1.5,1.5,0,0,1,1.3-1.67,1.49,1.49,0,0,1,1.64,1.31,34.16,34.16,0,0,1-.9,13.3c-1,3.6-2.46,6.4-5.11,11.45-1.57,3-2.65,4.78-3.37,6a9.07,9.07,0,0,0-1.5,3.22c-.92,4.26,1.1,8,3,11.65.35.64.68,1.27,1,1.89C517.91,280.83,518.39,281.87,518.83,283Z"/><path class="cls-1" d="M568.79,300a1.48,1.48,0,0,1-1.25,1c-10.41.77-18,11.29-18.09,11.39a1.45,1.45,0,0,1-2,.36c-8.77-6-23.95-3.65-24.09-3.62a1.44,1.44,0,0,1-1.12-.29,1.4,1.4,0,0,1-.58-1c-.22-1.8-.46-3.55-.72-5.24-.16-1.05-.35-2.07-.52-3.08a15.15,15.15,0,0,0,1.48-.88,11.41,11.41,0,0,0,1.21-.88c.21,1.07.39,2.16.57,3.28.27,1.6.51,3.26.73,5,4.09-.45,15.45-1.17,23.52,3.54,2.19-2.69,8.41-9.42,16.83-11.16a79.62,79.62,0,0,1-6.61-13.25,1.51,1.51,0,0,1,.81-2,1.49,1.49,0,0,1,1.93.82c4.51,11,7.6,14.46,7.63,14.51A1.48,1.48,0,0,1,568.79,300Z"/><path class="cls-1" d="M512.13,381.7a6.39,6.39,0,0,1-3.09-.78,8.41,8.41,0,0,1-3.77-9.16c1.29-5.58,7.81-6.76,9.1-6.94a12.56,12.56,0,0,1,8.6,2.1,65.15,65.15,0,0,0,2.73-20.16c-.72-13.08-2.15-26.59-4.25-40.16a1.48,1.48,0,1,1,2.92-.46c2.12,13.66,3.57,27.28,4.29,40.45a65.27,65.27,0,0,1-4.33,25.33,15.79,15.79,0,0,1-5.25,7C516.54,380.77,514.21,381.7,512.13,381.7Zm3.82-14a8.12,8.12,0,0,0-1.18.09c-.58.08-5.75.9-6.62,4.64a5.49,5.49,0,0,0,2.29,5.84c2.55,1.38,5.84-1,6.92-1.79a13,13,0,0,0,4.24-5.71l.36-.92A10.13,10.13,0,0,0,516,367.71Z"/><path class="cls-1" d="M516.14,427.89c-8,0-17.05-2.05-24.91-9-12.92-11.38-17.37-30.9-10.37-45.41a34.91,34.91,0,0,1,25-19.11,30.47,30.47,0,0,1,19.93,3.22,1.52,1.52,0,0,1,.67,2,1.45,1.45,0,0,1-2,.67,27.43,27.43,0,0,0-18.13-3c-11.56,2-19.37,10.33-22.82,17.48-6.43,13.33-2.29,31.31,9.65,41.83,16,14.08,37.64,6.24,41.82,4.53,10.32-4.24,16.1-11.43,20.32-16.69l.49-.6c21.78-27.05,16.65-67.48,14.72-82.7l-.13-1.06A128.79,128.79,0,0,0,566,299.89a1.49,1.49,0,0,1,1-1.85,1.47,1.47,0,0,1,1.83,1,132.42,132.42,0,0,1,4.49,20.69l.13,1.06c2,15.57,7.22,56.93-15.37,85l-.48.61c-4.18,5.19-10.48,13-21.51,17.57A55.59,55.59,0,0,1,516.14,427.89Z"/><path class="cls-1" d="M510.47,398.43c-4.89,0-10.82-1.28-14.73-6.48a17.71,17.71,0,0,1-.52-19.93c2.62-4,8.08-7.44,13.57-8.44a17.27,17.27,0,0,1,13.73,3.06,1.52,1.52,0,0,1,.31,2.1,1.47,1.47,0,0,1-2.07.32,14.4,14.4,0,0,0-11.44-2.53c-5.45,1-9.85,4.4-11.62,7.14a14.84,14.84,0,0,0,.4,16.47c6.3,8.39,19.49,4.39,20,4.22,1.24-.39,7.75-2.72,13.73-10.43,9.11-11.74,10.53-22.2,11.27-32.77.64-9.18-.92-25.79-5.85-42.21a1.5,1.5,0,0,1,1-1.87,1.48,1.48,0,0,1,1.85,1c5,16.78,6.64,33.84,6,43.3-.77,11.05-2.27,22-11.89,34.4C527.84,394,521,396.61,519,397.22A31.12,31.12,0,0,1,510.47,398.43Z"/><path class="cls-1" d="M512.89,411.67A23.54,23.54,0,0,1,498,406.86c-6.13-4.82-11.51-14.77-8.86-25.19,2.75-10.84,12.45-15.55,14.36-16.38a1.48,1.48,0,0,1,2,.79,1.51,1.51,0,0,1-.78,2c-1.69.73-10.26,4.88-12.67,14.36-2.31,9.12,2.43,17.84,7.82,22.09,10.75,8.48,27.78,2,35.28-2.63,10.36-6.38,21.68-22.58,23.61-44.4,1.62-18.31-2.58-43.54-5.08-52.37a1.5,1.5,0,0,1,1-1.86,1.48,1.48,0,0,1,1.83,1c2.55,9,6.84,34.76,5.19,53.47-1.46,16.47-9.76,37.3-25,46.69C531.1,407.81,521.92,411.67,512.89,411.67Z"/><path class="cls-1" d="M567.42,387.9a1.5,1.5,0,0,1,0-3c19.23-.32,34.19-6.35,44.47-17.93,16-18,15.92-44.4,15.65-50.68-37.61.81-51.88,33.91-52,34.25a1.47,1.47,0,0,1-1.94.8,1.51,1.51,0,0,1-.78-2c.15-.36,15.48-36.09,56.15-36.09a1.49,1.49,0,0,1,1.47,1.36c.12,1.33,2.73,32.85-16.3,54.31-10.85,12.24-26.54,18.62-46.64,18.95Z"/><path class="cls-1" d="M610.58,464l-.31,0a82.5,82.5,0,0,1-25.76-11.33c-12-7.95-26.83-22.68-29-47.7a1.48,1.48,0,1,1,2.95-.27c3.64,41.26,43.17,53.9,51.08,56,5-20.68,2.35-39.5-8-56a67.35,67.35,0,0,0-17.76-19.09,1.5,1.5,0,0,1-.44-2.07,1.47,1.47,0,0,1,2-.46A69.45,69.45,0,0,1,603.9,403c7.65,12.1,15.28,32.32,8.11,59.89A1.49,1.49,0,0,1,610.58,464Z"/><path class="cls-1" d="M515.63,210.68s2.32-3.7,9.22-2C524.85,208.71,521,213.31,515.63,210.68Z"/><path class="cls-1" d="M520.45,205.48a18.35,18.35,0,0,1,7.42-1.27c-5.14-.85-8.21-.56-10,.17a4.27,4.27,0,0,0-2.53,3.15,6.34,6.34,0,0,0,.32,3.15,8.19,8.19,0,0,1,2.87-.88l.21-1.87A3,3,0,0,1,520.45,205.48Z"/><path class="cls-1" d="M510,221.06s3.29,2.66,8.18.21a7.13,7.13,0,0,1-6.39,3Z"/><path class="cls-1" d="M573.62,362.71a1.4,1.4,0,0,1-.74-.2,1.51,1.51,0,0,1-.54-2.05c.17-.31,18.11-30.9,55.57-28.32a1.5,1.5,0,0,1-.21,3c-35.59-2.43-52.63,26.54-52.8,26.84A1.49,1.49,0,0,1,573.62,362.71Z"/><path class="cls-1" d="M572,372.56a1.45,1.45,0,0,1-1.07-.46,1.51,1.51,0,0,1,0-2.12c.93-.9,23.08-21.85,50.71-17.57a1.5,1.5,0,0,1-.45,3c-26.17-4.06-48,16.56-48.22,16.77A1.44,1.44,0,0,1,572,372.56Z"/><path class="cls-1" d="M568.75,386.92a1.54,1.54,0,0,1-.86-.28,1.51,1.51,0,0,1-.34-2.09c.14-.21,14.62-20.27,42.43-15.67a1.5,1.5,0,0,1-.48,3c-10.88-1.8-20.83.07-29.57,5.56a37.78,37.78,0,0,0-10,8.89A1.49,1.49,0,0,1,568.75,386.92Z"/><path class="cls-1" d="M600,402.68H600a33.5,33.5,0,0,1-26.73-15.31,1.51,1.51,0,0,1,.42-2.08,1.47,1.47,0,0,1,2.05.43,31.19,31.19,0,0,0,9.14,9.13,30.76,30.76,0,0,0,15.25,4.83,1.5,1.5,0,0,1-.06,3Z"/><path class="cls-1" d="M611.13,425h-.07c-5.41-.26-29.89-5.26-41.87-23.56a38.42,38.42,0,0,1-4.53-9.7,1.51,1.51,0,0,1,1-1.88,1.46,1.46,0,0,1,1.85,1,35.41,35.41,0,0,0,4.17,8.93C583,417,606.08,421.76,611.2,422a1.5,1.5,0,0,1-.07,3Z"/><path class="cls-1" d="M612.6,443h-.12c-23.41-1.91-36.57-13.14-43.48-22.22a52.19,52.19,0,0,1-9.5-19.56,1.48,1.48,0,1,1,2.9-.59c.29,1.46,7.72,35.91,50.31,39.38a1.5,1.5,0,0,1-.11,3Z"/><path class="cls-1" d="M565,190.54a1,1,0,0,1-1-1l-.14-10.13a1,1,0,0,1,1-1,1,1,0,0,1,1,1l.14,10.13a1,1,0,0,1-1,1Z"/><path class="cls-1" d="M567.18,207.38H563a1,1,0,0,1-.71-.31,1,1,0,0,1-.27-.73l.55-16.51a1,1,0,0,1,1-1h2.92a1,1,0,0,1,1,.95l.7,16.51a1,1,0,0,1-.28.74A1,1,0,0,1,567.18,207.38Zm-3.15-2h2.12l-.61-14.51h-1Z"/><path class="cls-1" d="M533.1,286.39c-.63,2.91-2.8,10.14-9.44,14.61a1,1,0,0,1-.16.12,20.15,20.15,0,0,1-2.58,1.44,21.54,21.54,0,0,1-9.17,1.92,39.58,39.58,0,0,1-6.07-.54c-14.18-2-23.51-12.14-28-18.36l-3.2-.52a8.4,8.4,0,0,1-8-.8,8.49,8.49,0,0,1-3.7-7.35,6.47,6.47,0,0,1,6.42-6.21h1.24a4,4,0,0,1,3.89-3.78l3.86,0c3.66,0,7.4,2.49,10,6.67a24.5,24.5,0,0,0,26,12,7.08,7.08,0,0,0,2.19-.74,7.38,7.38,0,0,0,2.42-1.9,8.08,8.08,0,0,0,1.92-5.27V260.18c0-6.89,2.59-10.37,7.72-10.37a1.49,1.49,0,0,1,1.47,1.51v.13a1.49,1.49,0,0,1-1.47,1.5,1.59,1.59,0,0,1-.59-.12c-2.24.16-4.18,1.38-4.18,7.35v17.51A11.09,11.09,0,0,1,520,286a10.51,10.51,0,0,1-5.31,2.54,29.78,29.78,0,0,1-16.09-1.8,30.12,30.12,0,0,1-12.87-11.58c-2.08-3.31-4.89-5.29-7.51-5.29l-3.86,0a1,1,0,0,0-.95,1v.75a2,2,0,0,1-2,2.06h-2.16a3.55,3.55,0,0,0-3.47,3.31,5.57,5.57,0,0,0,2.39,4.77,5.63,5.63,0,0,0,5.56.36,1.52,1.52,0,0,1,.84-.12l4.22.71a1.49,1.49,0,0,1,1,.6c4.06,5.78,12.89,15.73,26.36,17.65,3.65.53,9,1.28,14.31-1.5a15.15,15.15,0,0,0,1.48-.88,11.41,11.41,0,0,0,1.21-.88,21.28,21.28,0,0,0,7.12-12,1.48,1.48,0,1,1,2.89.64Z"/><path class="cls-1" d="M526.09,302.58a1.45,1.45,0,0,1-.86-.28,1.51,1.51,0,0,1-.35-2.09l4.52-6.42a9.65,9.65,0,0,0,0-11.1,12.69,12.69,0,0,1,0-14.58,9.65,9.65,0,0,0,0-11.1,12.69,12.69,0,0,1,0-14.58,9.65,9.65,0,0,0,0-11.1,12.69,12.69,0,0,1,0-14.58,9.65,9.65,0,0,0,0-11.1l-4.52-6.42,2.42-1.74,4.51,6.42a12.69,12.69,0,0,1,0,14.58,9.69,9.69,0,0,0,0,11.1,12.69,12.69,0,0,1,0,14.58,9.69,9.69,0,0,0,0,11.1,12.69,12.69,0,0,1,0,14.58,9.69,9.69,0,0,0,0,11.1,12.69,12.69,0,0,1,0,14.58L527.3,302A1.49,1.49,0,0,1,526.09,302.58Z"/><path class="cls-1" d="M302.65,193.85a1.37,1.37,0,0,1-.59-.13l-34.53-15.33a1.51,1.51,0,0,1,.05-2.77l34.53-13.79a1.44,1.44,0,0,1,1.08,0l34.53,13.79a1.49,1.49,0,0,1,.94,1.37,1.51,1.51,0,0,1-.89,1.4l-34.52,15.33A1.41,1.41,0,0,1,302.65,193.85ZM272,177.09l30.67,13.62,30.68-13.62-30.68-12.26Z"/><path class="cls-1" d="M303.36,199.87l-1.21,0A47.56,47.56,0,0,1,284.5,196a1.48,1.48,0,0,1-.9-1.38V185a1.48,1.48,0,1,1,3,0v8.57a44.69,44.69,0,0,0,33.58,0V185a1.48,1.48,0,1,1,3,0v9.57a1.49,1.49,0,0,1-.91,1.38A47.6,47.6,0,0,1,303.36,199.87Z"/><path class="cls-1" d="M311.77,234.15a20.5,20.5,0,0,1-2.57-.16,1.5,1.5,0,0,1,.38-3,14.54,14.54,0,0,0,10.08-2.18c5.44-3.86,6-11.19,6.23-14a25.22,25.22,0,0,0-.05-4.25,33.53,33.53,0,0,0-5.46-15.22,1.5,1.5,0,0,1,.43-2.07,1.47,1.47,0,0,1,2.05.43,36.59,36.59,0,0,1,5.93,16.59,28.18,28.18,0,0,1,0,4.76c-.22,2.84-.9,11.49-7.48,16.16A16.44,16.44,0,0,1,311.77,234.15Z"/><path class="cls-1" d="M300.85,302.58a1.49,1.49,0,0,1-1.21-.63l-4.52-6.42a12.73,12.73,0,0,1,0-14.58,9.65,9.65,0,0,0,0-11.1,12.73,12.73,0,0,1,0-14.58,9.65,9.65,0,0,0,0-11.1,12.73,12.73,0,0,1,0-14.58,9.65,9.65,0,0,0,0-11.1,12.73,12.73,0,0,1,0-14.58l4.52-6.42a1.47,1.47,0,0,1,2.07-.36,1.52,1.52,0,0,1,.34,2.1l-4.51,6.42a9.65,9.65,0,0,0,0,11.1,12.73,12.73,0,0,1,0,14.58,9.65,9.65,0,0,0,0,11.1,12.73,12.73,0,0,1,0,14.58,9.65,9.65,0,0,0,0,11.1,12.73,12.73,0,0,1,0,14.58,9.65,9.65,0,0,0,0,11.1l4.51,6.42a1.51,1.51,0,0,1-.34,2.09A1.47,1.47,0,0,1,300.85,302.58Z"/><path class="cls-1" d="M291.62,302.58a1.49,1.49,0,0,1-1.21-.63l-4.51-6.42a12.69,12.69,0,0,1,0-14.58,9.69,9.69,0,0,0,0-11.1,12.69,12.69,0,0,1,0-14.58,9.69,9.69,0,0,0,0-11.1,12.69,12.69,0,0,1,0-14.58,9.69,9.69,0,0,0,0-11.1,12.69,12.69,0,0,1,0-14.58l4.51-6.42a1.47,1.47,0,0,1,2.07-.36,1.53,1.53,0,0,1,.35,2.1l-4.52,6.42a9.65,9.65,0,0,0,0,11.1,12.69,12.69,0,0,1,0,14.58,9.65,9.65,0,0,0,0,11.1,12.69,12.69,0,0,1,0,14.58,9.65,9.65,0,0,0,0,11.1,12.69,12.69,0,0,1,0,14.58,9.65,9.65,0,0,0,0,11.1l4.52,6.42a1.52,1.52,0,0,1-.35,2.09A1.45,1.45,0,0,1,291.62,302.58Z"/><path class="cls-1" d="M283,302.58a1.47,1.47,0,0,1-1.2-.63l-4.52-6.42a12.69,12.69,0,0,1,0-14.58,9.65,9.65,0,0,0,0-11.1,12.69,12.69,0,0,1,0-14.58,9.65,9.65,0,0,0,0-11.1,12.69,12.69,0,0,1,0-14.58,9.65,9.65,0,0,0,0-11.1,12.69,12.69,0,0,1,0-14.58l6.59-9.37a1.47,1.47,0,0,1,2.06-.35,1.5,1.5,0,0,1,.35,2.09l-6.59,9.37a9.69,9.69,0,0,0,0,11.1,12.69,12.69,0,0,1,0,14.58,9.69,9.69,0,0,0,0,11.1,12.69,12.69,0,0,1,0,14.58,9.69,9.69,0,0,0,0,11.1,12.69,12.69,0,0,1,0,14.58,9.69,9.69,0,0,0,0,11.1l4.52,6.42a1.51,1.51,0,0,1-.35,2.09A1.45,1.45,0,0,1,283,302.58Z"/><path class="cls-1" d="M310.51,302.58H283a1.5,1.5,0,0,1,0-3h27.51a1.5,1.5,0,0,1,0,3Z"/><path class="cls-1" d="M314.72,298.6a16.43,16.43,0,0,0,1.48.88c-.17,1-.36,2-.52,3.08,0,.27-.08.55-.13.84-.14.93-.27,1.9-.4,2.88-.06.5-.13,1-.19,1.52a1.42,1.42,0,0,1-.57,1l-.05,0a1.41,1.41,0,0,1-1.08.26s-.55-.08-1.45-.17a51,51,0,0,0-12.56.2,31.85,31.85,0,0,0-3.28.68,21,21,0,0,0-6.8,2.91,1.45,1.45,0,0,1-.82.26,1.48,1.48,0,0,1-1.2-.62,34.52,34.52,0,0,0-4.71-5c-.78-.68-1.62-1.37-2.55-2a22.19,22.19,0,0,0-9.63-4.18,9.37,9.37,0,0,0-1.2-.14,1.48,1.48,0,0,1-1.26-1,1.64,1.64,0,0,1-.08-.82.61.61,0,0,1,0-.13l0,0a.67.67,0,0,1,.07-.18,1.71,1.71,0,0,1,.3-.44c.38-.45,3.36-4.11,7.58-14.42,0,0,0,0,0,0a1.49,1.49,0,0,1,1.93-.82,1.51,1.51,0,0,1,.81,2c-1.07,2.62-2.08,4.84-3,6.7a61,61,0,0,1-3.64,6.55c8.42,1.74,14.64,8.47,16.83,11.16,8.07-4.71,19.43-4,23.52-3.54.22-1.71.46-3.37.72-5,.19-1.12.38-2.22.58-3.27A11.41,11.41,0,0,0,314.72,298.6Z"/><path class="cls-1" d="M322.78,279.4c-.33.61-.65,1.21-1,1.82-.58,1.12-1.11,2.33-1.63,3.64-.36.91-.71,1.84-1,2.84a10.49,10.49,0,0,1-2.58-1.7c.37-1.07.76-2.08,1.17-3s.93-2.13,1.44-3.11q.46-.93,1-1.89c1.94-3.63,4-7.39,3-11.65a9.07,9.07,0,0,0-1.5-3.22c-.72-1.19-1.8-3-3.37-6-2.65-5.05-4.12-7.85-5.11-11.45a33.08,33.08,0,0,1-1.05-11.53q0-.88.15-1.77a1.48,1.48,0,1,1,2.94.36c0,.37-.08.73-.11,1.11a30.35,30.35,0,0,0,.92,11c.91,3.3,2.23,5.84,4.88,10.88l.25.49c.59,1.09,1.09,2,1.52,2.76.61,1.07,1.1,1.87,1.5,2.54s.79,1.31,1.07,1.85a8.82,8.82,0,0,1,.8,2.31,3.13,3.13,0,0,1,.1.6C327.09,271.35,324.8,275.61,322.78,279.4Z"/><path class="cls-1" d="M324.47,381.7c-2.08,0-4.4-.93-7-2.77a15.79,15.79,0,0,1-5.25-7A65.16,65.16,0,0,1,308,346.59c.72-13.18,2.16-26.79,4.28-40.45a1.47,1.47,0,0,1,1.69-1.25,1.49,1.49,0,0,1,1.23,1.71c-2.1,13.56-3.53,27.07-4.25,40.16a65.15,65.15,0,0,0,2.73,20.16,12.58,12.58,0,0,1,8.6-2.1c1.29.18,7.81,1.36,9.1,6.94a8.41,8.41,0,0,1-3.77,9.16A6.39,6.39,0,0,1,324.47,381.7Zm-9.82-11.84c.11.31.23.61.36.92a12.9,12.9,0,0,0,4.23,5.71c1.08.78,4.37,3.17,6.93,1.79a5.51,5.51,0,0,0,2.28-5.84c-.87-3.74-6-4.56-6.62-4.64A9.82,9.82,0,0,0,314.65,369.86Z"/><path class="cls-1" d="M320.46,427.89a55.59,55.59,0,0,1-20-3.93c-11-4.53-17.33-12.38-21.51-17.57l-.48-.61c-22.59-28-17.34-69.4-15.37-85l.13-1.06a130.89,130.89,0,0,1,4.49-20.69,1.46,1.46,0,0,1,1.83-1,1.49,1.49,0,0,1,1,1.85,129.05,129.05,0,0,0-4.39,20.24l-.13,1.06c-1.93,15.22-7.06,55.65,14.72,82.7l.49.6c4.22,5.26,10,12.45,20.32,16.69,4.18,1.71,25.85,9.55,41.82-4.53,11.94-10.52,16.08-28.5,9.65-41.83-3.45-7.15-11.26-15.49-22.82-17.48a27.37,27.37,0,0,0-18.1,3l-1.35-2.67a30.49,30.49,0,0,1,19.95-3.23,34.91,34.91,0,0,1,25,19.11c7,14.51,2.55,34-10.36,45.41C337.51,425.84,328.44,427.89,320.46,427.89Z"/><path class="cls-1" d="M326.13,398.43a31.12,31.12,0,0,1-8.55-1.21c-1.95-.61-8.82-3.24-15.19-11.44-9.62-12.4-11.11-23.35-11.89-34.4-.66-9.46.92-26.52,6-43.3a1.48,1.48,0,1,1,2.83.87c-4.93,16.42-6.49,33-5.85,42.21.74,10.57,2.16,21,11.27,32.77,6,7.71,12.49,10,13.73,10.43.56.17,13.75,4.17,20.05-4.22a14.84,14.84,0,0,0,.41-16.47c-1.78-2.74-6.18-6.15-11.63-7.14a14.41,14.41,0,0,0-11.44,2.53,1.47,1.47,0,0,1-2.07-.32,1.52,1.52,0,0,1,.31-2.1,17.28,17.28,0,0,1,13.73-3.06c5.49,1,10.95,4.39,13.57,8.44a17.7,17.7,0,0,1-.52,19.93C337,397.15,331,398.43,326.13,398.43Z"/><path class="cls-1" d="M323.71,411.67c-9,0-18.21-3.86-23.7-7.24-15.27-9.39-23.57-30.22-25-46.69-1.65-18.7,2.64-44.46,5.19-53.47a1.49,1.49,0,0,1,1.83-1,1.51,1.51,0,0,1,1,1.86c-2.51,8.83-6.71,34.06-5.09,52.37,1.93,21.82,13.25,38,23.61,44.4,7.51,4.61,24.53,11.11,35.29,2.63,5.38-4.25,10.12-13,7.81-22.09-2.41-9.48-11-13.63-12.67-14.36a1.51,1.51,0,0,1-.78-2,1.49,1.49,0,0,1,1.95-.79c1.92.84,11.61,5.54,14.36,16.38,2.65,10.42-2.73,20.37-8.86,25.19A23.54,23.54,0,0,1,323.71,411.67Z"/><path class="cls-1" d="M269.18,387.9h0c-20.1-.33-35.79-6.71-46.64-18.95-19-21.46-16.42-53-16.3-54.31a1.49,1.49,0,0,1,1.47-1.36c40.67,0,56,35.73,56.16,36.09a1.52,1.52,0,0,1-.79,2,1.48,1.48,0,0,1-1.94-.8c-.14-.34-14.42-33.44-52-34.25-.27,6.28-.34,32.66,15.65,50.68C235,378.55,250,384.58,269.2,384.9a1.5,1.5,0,0,1,0,3Z"/><path class="cls-1" d="M226,464a1.49,1.49,0,0,1-1.43-1.12c-7.17-27.57.46-47.79,8.12-59.89a69.5,69.5,0,0,1,18.58-19.89,1.48,1.48,0,0,1,2.05.46,1.51,1.51,0,0,1-.45,2.07,67.35,67.35,0,0,0-17.76,19.09c-10.38,16.47-13.08,35.29-8,56,7.92-2.13,47.45-14.8,51.08-56a1.48,1.48,0,1,1,2.95.27c-2.21,25-17,39.75-29,47.7A82.5,82.5,0,0,1,226.33,464Z"/><path class="cls-1" d="M321,210.68s-2.32-3.7-9.22-2C311.75,208.71,315.6,213.31,321,210.68Z"/><path class="cls-1" d="M316.15,205.48a18.33,18.33,0,0,0-7.42-1.27c5.14-.85,8.21-.56,10,.17a4.28,4.28,0,0,1,2.52,3.15,6.34,6.34,0,0,1-.32,3.15,8.19,8.19,0,0,0-2.87-.88l-.21-1.87A3,3,0,0,0,316.15,205.48Z"/><path class="cls-1" d="M326.59,221.06s-3.28,2.66-8.18.21a7.13,7.13,0,0,0,6.39,3Z"/><path class="cls-1" d="M263,362.71a1.49,1.49,0,0,1-1.28-.74c-.17-.3-17.24-29.28-52.8-26.84a1.5,1.5,0,0,1-.2-3c37.42-2.56,55.39,28,55.56,28.32a1.52,1.52,0,0,1-.53,2.05A1.46,1.46,0,0,1,263,362.71Z"/><path class="cls-1" d="M264.65,372.56a1.44,1.44,0,0,1-1-.41c-.22-.21-22-20.83-48.22-16.77a1.5,1.5,0,0,1-.45-3c27.63-4.28,49.78,16.67,50.71,17.57a1.51,1.51,0,0,1,.05,2.12A1.45,1.45,0,0,1,264.65,372.56Z"/><path class="cls-1" d="M267.85,386.92a1.49,1.49,0,0,1-1.21-.63c-.14-.21-13.6-18.74-39.54-14.45a1.5,1.5,0,0,1-.48-3c27.82-4.6,42.29,15.46,42.43,15.67a1.51,1.51,0,0,1-.34,2.09A1.49,1.49,0,0,1,267.85,386.92Z"/><path class="cls-1" d="M236.58,402.68a1.5,1.5,0,0,1-.06-3,30.54,30.54,0,0,0,24.39-14,1.49,1.49,0,0,1,2.06-.43,1.52,1.52,0,0,1,.42,2.08,33.54,33.54,0,0,1-26.74,15.31Z"/><path class="cls-1" d="M225.47,425a1.5,1.5,0,0,1-.07-3c5.12-.24,28.24-5,39.54-22.22a35.06,35.06,0,0,0,4.17-8.93,1.48,1.48,0,0,1,1.86-1,1.51,1.51,0,0,1,1,1.88,38.58,38.58,0,0,1-4.53,9.7c-12,18.3-36.46,23.3-41.87,23.56Z"/><path class="cls-1" d="M224,443a1.5,1.5,0,0,1-.12-3c42.67-3.48,50.24-39,50.31-39.38A1.48,1.48,0,0,1,276,399.5a1.49,1.49,0,0,1,1.16,1.76c-.08.38-8.12,38.12-53,41.78Z"/><path class="cls-1" d="M271.6,190.54h0a1,1,0,0,1-1-1l.14-10.13a1,1,0,0,1,1-1h0a1,1,0,0,1,1,1l-.14,10.13A1,1,0,0,1,271.6,190.54Z"/><path class="cls-1" d="M273.59,207.38h-4.17a1,1,0,0,1-.71-.31,1,1,0,0,1-.27-.74l.69-16.51a1,1,0,0,1,1-.95H273a1,1,0,0,1,1,1l.56,16.51a1,1,0,0,1-.28.73A1,1,0,0,1,273.59,207.38Zm-3.14-2h2.12l-.49-14.51h-1Z"/><path class="cls-1" d="M373.79,276.91a8.49,8.49,0,0,1-3.7,7.35,8.4,8.4,0,0,1-8,.8l-3.19.52c-4.5,6.22-13.83,16.36-28,18.36a39.56,39.56,0,0,1-6.06.54,21.55,21.55,0,0,1-9.18-1.92,20.15,20.15,0,0,1-2.58-1.44,1.55,1.55,0,0,1-.17-.13,12.78,12.78,0,0,1-1.4-1.05,24.31,24.31,0,0,1-8-13.55,1.51,1.51,0,0,1,1.12-1.79A1.48,1.48,0,0,1,306,285a1.38,1.38,0,0,1,.39.72,21.33,21.33,0,0,0,7.12,12,11.41,11.41,0,0,0,1.21.88,16.43,16.43,0,0,0,1.48.88c5.29,2.78,10.66,2,14.32,1.5,13.46-1.92,22.29-11.87,26.35-17.65a1.52,1.52,0,0,1,1-.6l4.22-.71a1.5,1.5,0,0,1,.83.12,5.54,5.54,0,0,0,5.54-.38,5.48,5.48,0,0,0,2.41-4.75,3.55,3.55,0,0,0-3.47-3.31h-2.16a2,2,0,0,1-2-2.06v-.75a1,1,0,0,0-1-1l-3.86,0c-2.6,0-5.41,2-7.49,5.29A30.19,30.19,0,0,1,338,286.75a29.78,29.78,0,0,1-16.09,1.8,10.85,10.85,0,0,1-2.73-.85,10.49,10.49,0,0,1-2.58-1.7,11.05,11.05,0,0,1-3.69-8.31V260.18c0-5.63-1.73-7-3.8-7.31l-.37,0a1.68,1.68,0,0,1-.59.12,1.49,1.49,0,0,1-1.47-1.5v-.13a1.49,1.49,0,0,1,1.47-1.51,8.41,8.41,0,0,1,1.35.1c4.23.57,6.36,4,6.36,10.27v17.51a8.13,8.13,0,0,0,1.91,5.27,7.52,7.52,0,0,0,2.43,1.9,7.17,7.17,0,0,0,2.19.74,24.5,24.5,0,0,0,26-12c2.62-4.18,6.36-6.67,10-6.67l3.87,0a4,4,0,0,1,3.89,3.78h1.24A6.47,6.47,0,0,1,373.79,276.91Z"/><path class="cls-1" d="M310.51,302.58a1.45,1.45,0,0,1-1.2-.63l-4.52-6.42a12.69,12.69,0,0,1,0-14.58,9.69,9.69,0,0,0,0-11.1,12.69,12.69,0,0,1,0-14.58,9.69,9.69,0,0,0,0-11.1,12.69,12.69,0,0,1,0-14.58,9.69,9.69,0,0,0,0-11.1,12.69,12.69,0,0,1,0-14.58l4.52-6.42a1.46,1.46,0,0,1,2.06-.36,1.52,1.52,0,0,1,.35,2.1l-4.52,6.42a9.65,9.65,0,0,0,0,11.1,12.69,12.69,0,0,1,0,14.58,9.65,9.65,0,0,0,0,11.1,12.69,12.69,0,0,1,0,14.58,9.65,9.65,0,0,0,0,11.1,12.69,12.69,0,0,1,0,14.58,9.65,9.65,0,0,0,0,11.1l4.52,6.42a1.51,1.51,0,0,1-.35,2.09A1.45,1.45,0,0,1,310.51,302.58Z"/><path class="cls-1" d="M418.94,277.06a1.44,1.44,0,0,1-.65-.15l-.21-.1A149.34,149.34,0,0,0,384.84,263a151.71,151.71,0,0,0-62.78-3.94,1.48,1.48,0,0,1-1.67-1.27,1.5,1.5,0,0,1,1.26-1.7,154.51,154.51,0,0,1,64,4,152,152,0,0,1,33.3,13.74,152.45,152.45,0,0,1,33.13-13.64,154.52,154.52,0,0,1,64-4,1.5,1.5,0,0,1,1.26,1.7,1.48,1.48,0,0,1-1.67,1.27,151.65,151.65,0,0,0-62.77,3.94,149.07,149.07,0,0,0-33.18,13.77A1.46,1.46,0,0,1,418.94,277.06Z"/><path class="cls-1" d="M419.37,284.6a1.47,1.47,0,0,1-.65-.15l-.2-.1a149.89,149.89,0,0,0-33.25-13.81c-27-7.54-46.93-6-59.6-4.19a1.48,1.48,0,0,1-1.67-1.27,1.51,1.51,0,0,1,1.26-1.7c12.92-1.85,33.28-3.42,60.79,4.27a151.84,151.84,0,0,1,33.31,13.75,151.71,151.71,0,0,1,33.12-13.65c28.57-8,47.73-6.64,59.65-4.93a1.5,1.5,0,0,1-.41,3c-11.67-1.67-30.42-3-58.45,4.85a149.54,149.54,0,0,0-33.18,13.77A1.44,1.44,0,0,1,419.37,284.6Z"/><path class="cls-1" d="M322,355.39a1.48,1.48,0,0,1-1.48-1.43,260.67,260.67,0,0,0-3-28.72c-1.08-6.73-2.44-13.51-4-20.14a1.5,1.5,0,0,1,1.08-1.82,1.48,1.48,0,0,1,1.79,1.1c1.64,6.71,3,13.57,4.1,20.38a259.55,259.55,0,0,1,3,29.07,1.49,1.49,0,0,1-1.41,1.56Z"/><path class="cls-1" d="M515.26,356.71h-.07a1.5,1.5,0,0,1-1.41-1.57,261.92,261.92,0,0,1,3-29.07c1.09-6.81,2.47-13.67,4.1-20.38a1.49,1.49,0,0,1,1.79-1.1,1.51,1.51,0,0,1,1.09,1.82c-1.61,6.63-3,13.41-4,20.14a255.84,255.84,0,0,0-3,28.73A1.49,1.49,0,0,1,515.26,356.71Z"/><path class="cls-1" d="M464.18,298.56l-6.79,5.15,5.49,7.3a1.44,1.44,0,0,1,.29,1.11,1.47,1.47,0,0,1-.58,1l-6.09,4.63a1.49,1.49,0,0,1-2.07-.28l-5.4-7.2-2.21,1.67,5.13,6.82a1.47,1.47,0,0,1,.29,1.13,1.49,1.49,0,0,1-.58,1l-4.79,3.64a1.47,1.47,0,0,1-2.08-.29l-5.05-6.72L431,324.18l-.09.07c-.45.34-2.81,2.27-4.92,4-.61.49-1.19,1-1.69,1.39l-.72.54-2.94,2.24-2.46,1.87-18.43,14-.81.62a1.48,1.48,0,0,1-2.06-.3,1.53,1.53,0,0,1,.29-2.11l1.08-.82,17.5-13.3,2.46-1.88,2.91-2.2,1.35-1,1.07-.87,2.26-1.85,2.32-1.9a11.27,11.27,0,0,1,.92-.7s0,0,0,0a.87.87,0,0,1,.18-.11l0,0,10-7.58a1.47,1.47,0,0,1,2.06.29l5.05,6.74,2.44-1.86-5.13-6.82a1.47,1.47,0,0,1-.29-1.13,1.52,1.52,0,0,1,.58-1l4.56-3.47a1.49,1.49,0,0,1,2.08.29l5.4,7.2,3.73-2.83-5.49-7.3a1.52,1.52,0,0,1,.29-2.12l6.78-5.14-1.76-2.34-38.82,29.48-2.47,1.87-2.88,2.19-2.46,1.87L396,342.94,394.53,344a1.44,1.44,0,0,1-1.78,0,.09.09,0,0,0-.06,0,1.79,1.79,0,0,1-.23-.25,1.5,1.5,0,0,1,.29-2.09l.93-.7,16.71-12.69,2.46-1.87,2.84-2.16,2.47-1.88,40.69-30.89a1.46,1.46,0,0,1,2.07.29l3.55,4.72a1.48,1.48,0,0,1,.28,1.11A1.46,1.46,0,0,1,464.18,298.56Z"/><path class="cls-1" d="M381.44,378a20.46,20.46,0,0,1-16.4-8.2,20.72,20.72,0,0,1,4-28.91A20.42,20.42,0,0,1,397.71,345a23.17,23.17,0,0,1,3.18,6.16A20.79,20.79,0,0,1,400,366a20.11,20.11,0,0,1-1.59,2.87,22.39,22.39,0,0,1-4.71,5A20.25,20.25,0,0,1,381.44,378Zm-.12-38.26A17.5,17.5,0,0,0,364,355,17.59,17.59,0,0,0,392,371.49a20.26,20.26,0,0,0,4-4.3,16.81,16.81,0,0,0,1.35-2.46h0a18.1,18.1,0,0,0,1.54-8.25,17.69,17.69,0,0,0-.8-4.4h0a20.43,20.43,0,0,0-2.73-5.29A17.51,17.51,0,0,0,381.32,339.78Z"/><path class="cls-1" d="M381.3,371.42a13.78,13.78,0,0,1-8.83-24.27,15.25,15.25,0,0,1,3-1.95,13.59,13.59,0,0,1,10.72-.32h0a13.45,13.45,0,0,1,2.72,1.46,15.06,15.06,0,0,1,2.73,2.49,13.82,13.82,0,0,1-1.63,19.38A13.5,13.5,0,0,1,381.3,371.42Zm-.1-24.49a10.46,10.46,0,0,0-1.09.06,10.58,10.58,0,0,0-3.35.93,12.53,12.53,0,0,0-2.39,1.53,10.71,10.71,0,1,0,15.06,1.32,12.92,12.92,0,0,0-2.14-2,10.11,10.11,0,0,0-2.13-1.13h0A10.72,10.72,0,0,0,381.2,346.93Z"/><path class="cls-1" d="M523.51,155.77a1.66,1.66,0,0,1-.93-.28,182.76,182.76,0,0,0-81-30,1.66,1.66,0,0,1-1.46-1.84,1.67,1.67,0,0,1,1.84-1.46,186.2,186.2,0,0,1,82.46,30.54,1.67,1.67,0,0,1,.45,2.31A1.69,1.69,0,0,1,523.51,155.77Z"/><path class="cls-1" d="M317.28,155.8a1.66,1.66,0,0,1-.93-3,185.91,185.91,0,0,1,85.35-30.87,1.66,1.66,0,1,1,.33,3.3,182.62,182.62,0,0,0-83.83,30.32A1.64,1.64,0,0,1,317.28,155.8Z"/><path class="cls-1" d="M421.83,256a1.66,1.66,0,0,1-1.66-1.66V123.41a1.66,1.66,0,0,1,3.32,0V254.32A1.66,1.66,0,0,1,421.83,256Z"/><path class="cls-1" d="M403.65,251.94a1.67,1.67,0,0,1-1.63-1.35L382.58,148a1.66,1.66,0,1,1,3.26-.62L405.28,250a1.66,1.66,0,0,1-1.32,1.94A1.63,1.63,0,0,1,403.65,251.94Z"/><path class="cls-1" d="M381.26,248a1.65,1.65,0,0,1-1.55-1.08l-29.37-78.52a1.66,1.66,0,1,1,3.11-1.16l29.37,78.52a1.67,1.67,0,0,1-1,2.14A1.7,1.7,0,0,1,381.26,248Z"/><path class="cls-1" d="M359.76,249a1.66,1.66,0,0,1-1.48-.91l-23.14-45.93a1.66,1.66,0,1,1,3-1.49l23.14,45.93a1.67,1.67,0,0,1-.74,2.23A1.65,1.65,0,0,1,359.76,249Z"/><path class="cls-1" d="M438.84,251.94l-.31,0a1.66,1.66,0,0,1-1.32-1.94l19.44-102.58a1.64,1.64,0,0,1,1.94-1.32,1.66,1.66,0,0,1,1.32,1.94L440.47,250.59A1.67,1.67,0,0,1,438.84,251.94Z"/><path class="cls-1" d="M461.23,248a1.65,1.65,0,0,1-1.56-2.24l29.38-78.52a1.66,1.66,0,1,1,3.11,1.16l-29.38,78.52A1.65,1.65,0,0,1,461.23,248Z"/><path class="cls-1" d="M482.73,249a1.68,1.68,0,0,1-.75-.17,1.65,1.65,0,0,1-.73-2.23l23.13-45.93a1.66,1.66,0,0,1,3,1.49L484.21,248A1.64,1.64,0,0,1,482.73,249Z"/><path class="cls-1" d="M392.25,454.28l-.14-.3c2.79-2.34,5.34-4.6,8.08-7.07,2.23-2,3.8-4.06,3.8-5.9a2.58,2.58,0,0,0-2.76-2.82c-1.86,0-3,1-3,1.93,0,.52.11.38.11.89s-.42.91-1.11.91a.92.92,0,0,1-1-1c0-1.15,2.12-3.06,5.23-3.06,2.58,0,4.67,1.63,4.67,3.59s-1.67,3.55-3.9,5.23l-8,6v.05h7c1,0,1.83-.16,2.12-1l.32-.88h.4l-1,3.45Z"/><path class="cls-1" d="M415.73,437.86c2.6,0,3.82,2.31,3.82,4.94,0,6.07-4.67,11.8-8.07,11.8-2.45,0-3.88-1.84-3.88-5C407.6,443.88,412,437.86,415.73,437.86Zm-4.31,16.42c3.67,0,6.49-10.52,6.49-13.22,0-2-.91-2.87-2.13-2.87-3.82,0-6.54,10.63-6.54,13.52C409.24,453.37,410.12,454.28,411.42,454.28Z"/><path class="cls-1" d="M418.11,454.28,418,454c2.79-2.34,5.34-4.6,8.08-7.07,2.23-2,3.8-4.06,3.8-5.9a2.59,2.59,0,0,0-2.77-2.82c-1.86,0-3,1-3,1.93,0,.52.11.38.11.89s-.43.91-1.12.91a.92.92,0,0,1-1-1c0-1.15,2.13-3.06,5.24-3.06,2.57,0,4.67,1.63,4.67,3.59s-1.67,3.55-3.9,5.23l-8,6v.05h7c1,0,1.84-.16,2.13-1l.32-.88h.4l-1,3.45Z"/><path class="cls-1" d="M441.46,439.73a38.8,38.8,0,0,1-4.38,2.07l-.19-.28a26.21,26.21,0,0,0,6.67-3.66h.37L438.8,454h2.85l-.11.33h-7.25l.1-.33h2.55Z"/><circle class="cls-1" cx="381.62" cy="444.56" r="1.82"/><circle class="cls-1" cx="454.01" cy="445.93" r="1.82"/><path class="cls-1" d="M420.32,473.53A174.93,174.93,0,0,1,315.48,439a1.79,1.79,0,0,1,2.12-2.88,172.87,172.87,0,0,0,205.23.16,1.78,1.78,0,1,1,2.12,2.87A175,175,0,0,1,420.32,473.53Z"/></svg>