<svg id="图层_1" data-name="图层 1" xmlns="http://www.w3.org/2000/svg" viewBox="0 0 841.89 595.28"><defs><style>.cls-1{fill:#293e57;}</style></defs><path class="cls-1" d="M214.11,448.94v-.51a5.55,5.55,0,0,0,.74-.1,6.3,6.3,0,0,0,1.21-.36,3.37,3.37,0,0,0,1.11-.7,1.56,1.56,0,0,0,.48-1.17,6.83,6.83,0,0,0-.27-1.49c-.19-.69-.45-1.54-.79-2.53s-.72-2.1-1.16-3.32-.91-2.48-1.42-3.8H200.55c-.51,1.29-1,2.51-1.47,3.67s-1,2.34-1.42,3.52A12.8,12.8,0,0,0,196.6,446a1.53,1.53,0,0,0,.4,1.09,3.19,3.19,0,0,0,1,.71,5.89,5.89,0,0,0,1.37.4l1.39.23v.51H190v-.56a5.57,5.57,0,0,0,2.25-.71,4.9,4.9,0,0,0,1.09-.76,11.07,11.07,0,0,0,1.16-1.67,37.56,37.56,0,0,0,2-3.9c.71-1.58,1.5-3.39,2.37-5.41l2.71-6.26q1.39-3.21,2.76-6.47t2.58-6.1l-.5-1.12a8.51,8.51,0,0,0,1.64-1,9.79,9.79,0,0,0,1.29-1.16,10.94,10.94,0,0,0,.94-1.17c.25-.37.45-.67.58-.91h.41c1,2.8,2,5.46,3,8s1.85,4.94,2.71,7.27,1.7,4.58,2.51,6.75,1.62,4.33,2.43,6.46a27.16,27.16,0,0,0,1,2.61l1.08,2.35a6.66,6.66,0,0,0,.46.71,7.12,7.12,0,0,0,.93,1,5.84,5.84,0,0,0,1.45.93,5.18,5.18,0,0,0,2,.46v.61Zm-6.63-30.68c-.2.44-.5,1.13-.88,2.08s-.88,2.09-1.45,3.44-1.21,2.87-1.9,4.58L201,433.9h12.61q-.87-2.28-1.75-4.55c-.59-1.52-1.17-3-1.72-4.38s-1.07-2.69-1.52-3.85S207.78,419,207.48,418.26Z"/><path class="cls-1" d="M244.13,448.94v-.56a12,12,0,0,0,2.18-.33,1,1,0,0,0,.81-1V434.26a8.94,8.94,0,0,0-1.12-4.74,4.06,4.06,0,0,0-3.74-1.79,5.11,5.11,0,0,0-2.79.7,15.76,15.76,0,0,0-2.48,2.08v16.6a1.32,1.32,0,0,0,.36.74,1.5,1.5,0,0,0,.61.33,3.65,3.65,0,0,0,.8.12,6.68,6.68,0,0,1,1,.13v.51H230v-.51a6.48,6.48,0,0,0,2-.46,1.19,1.19,0,0,0,.84-1.16V429.4a1.83,1.83,0,0,0-.08-.61,1.1,1.1,0,0,0-.43-.46l-1.06-.58a13.32,13.32,0,0,0-1.21-.58v-.3l6.63-2.38h.3V430l.1.05a17.11,17.11,0,0,1,1.39-1.84,12.41,12.41,0,0,1,1.89-1.8,10.47,10.47,0,0,1,2.32-1.34,6.6,6.6,0,0,1,2.62-.53,5.18,5.18,0,0,1,4.49,2.17,9.37,9.37,0,0,1,1.57,5.62v14.88a.75.75,0,0,0,.33.61,2.18,2.18,0,0,0,.78.38,7.22,7.22,0,0,0,1,.2c.35,0,.68.1,1,.13v.46Z"/><path class="cls-1" d="M275.66,449.09h-.3V444h-.05a10.27,10.27,0,0,1-3.47,3.74,9.42,9.42,0,0,1-5,1.22,9.23,9.23,0,0,1-3.62-.74,8.52,8.52,0,0,1-3.11-2.28,11.29,11.29,0,0,1-2.18-3.79,15.29,15.29,0,0,1-.81-5.19,12.67,12.67,0,0,1,.94-4.91,11.91,11.91,0,0,1,6.7-6.63,14,14,0,0,1,5.27-1,15.38,15.38,0,0,1,2.86.25,20.39,20.39,0,0,1,2.45.61c0-.51-.06-1.2-.07-2.08s0-1.77,0-2.68v-4.3l-4.15-1.57v-.31l8.05-2.22h.4V445a12.42,12.42,0,0,0,1.52.71l2.08.86V447Zm-.35-19a10,10,0,0,0-2.83-3.34,5.54,5.54,0,0,0-3.19-1.26,6,6,0,0,0-3.37.91,7.35,7.35,0,0,0-2.3,2.43,11.28,11.28,0,0,0-1.34,3.49,18.82,18.82,0,0,0-.43,4.05,15.84,15.84,0,0,0,.5,4,11.08,11.08,0,0,0,1.52,3.44,8.2,8.2,0,0,0,2.51,2.4,6.47,6.47,0,0,0,3.46.91,5,5,0,0,0,3.57-1.41,6.45,6.45,0,0,0,1.9-3.6Z"/><path class="cls-1" d="M306.09,443.75a9.34,9.34,0,0,1-1.93,2.55,10.27,10.27,0,0,1-2.9,1.93,9.28,9.28,0,0,1-3.78.76,11.1,11.1,0,0,1-4.7-1,10.21,10.21,0,0,1-3.62-2.7,12.47,12.47,0,0,1-2.31-4.1,15.22,15.22,0,0,1-.81-5,12.51,12.51,0,0,1,.76-4.23,12.78,12.78,0,0,1,2.15-3.77,11,11,0,0,1,3.4-2.71,9.48,9.48,0,0,1,4.43-1,13.52,13.52,0,0,1,3.71.5,8.49,8.49,0,0,1,3,1.55,8,8,0,0,1,2.1,2.6,9.64,9.64,0,0,1,1,3.7H290.35a8.3,8.3,0,0,1-.06.93c0,.36,0,.72,0,1.09a13.79,13.79,0,0,0,.6,4.08,10.88,10.88,0,0,0,1.77,3.44,8.17,8.17,0,0,0,2.94,2.35,9.19,9.19,0,0,0,4.1.86,7.7,7.7,0,0,0,4.43-1.29,6.09,6.09,0,0,0,2.51-3.16l.4.1A9.66,9.66,0,0,1,306.09,443.75Zm-5.8-17.06a4.56,4.56,0,0,0-3.47-1.34,4.25,4.25,0,0,0-2.55.83,9.34,9.34,0,0,0-2,1.95,10,10,0,0,0-1.3,2.25,9,9,0,0,0-.55,1.75h2.07q.92,0,1.8,0l1.85-.05,2.12,0c.51,0,1,0,1.42,0a4.39,4.39,0,0,0,1.17-.25,4.24,4.24,0,0,0,.53-.76,2.62,2.62,0,0,0,.18-1.07A4.46,4.46,0,0,0,300.29,426.69Z"/><path class="cls-1" d="M326.29,429a2,2,0,0,1-1.52.73,2.52,2.52,0,0,1-1.29-.28,3.84,3.84,0,0,1-.84-.63,5,5,0,0,0-.76-.63,1.9,1.9,0,0,0-1.11-.28,2,2,0,0,0-1.19.43,5.62,5.62,0,0,0-1.09,1.09,8.33,8.33,0,0,0-.91,1.49c-.27.56-.51,1.09-.71,1.59v14.58a1.2,1.2,0,0,0,.66.71,3.91,3.91,0,0,0,1.14.36,11,11,0,0,0,1.31.12,7.59,7.59,0,0,1,1.19.13v.51H309.84v-.51a6.48,6.48,0,0,0,2-.46,1.19,1.19,0,0,0,.84-1.16V429.7a1.87,1.87,0,0,0-.08-.61,1.16,1.16,0,0,0-.43-.45c-.3-.17-.66-.38-1.06-.64a8.85,8.85,0,0,0-1.22-.63v-.3l6.64-2.58h.3l-.1,7h.1q.26-.6.81-1.77a14.41,14.41,0,0,1,1.42-2.35,8.58,8.58,0,0,1,2.07-2,4.66,4.66,0,0,1,2.79-.86,3.18,3.18,0,0,1,2.15.76,2.4,2.4,0,0,1,.88,1.92A2.71,2.71,0,0,1,326.29,429Z"/><path class="cls-1" d="M345.6,445a6.85,6.85,0,0,1-2.11,2.36,8.91,8.91,0,0,1-3,1.31,15.29,15.29,0,0,1-3.56.41,21,21,0,0,1-4.21-.41,17.43,17.43,0,0,1-3.64-1.16v-6.68h.41a24.72,24.72,0,0,0,1,2.55,13.25,13.25,0,0,0,1.46,2.48A7.56,7.56,0,0,0,334,447.7a5.46,5.46,0,0,0,2.88.73,5.29,5.29,0,0,0,3.85-1.39,5.72,5.72,0,0,0,1.44-4.28,3.68,3.68,0,0,0-1-2.61,5.06,5.06,0,0,0-2.7-1.39c-.91-.17-1.78-.35-2.62-.56s-1.6-.42-2.27-.65a6.28,6.28,0,0,1-3.1-2.28,6.43,6.43,0,0,1-1.19-3.9,6,6,0,0,1,.66-2.83,6.91,6.91,0,0,1,1.77-2.18,7.82,7.82,0,0,1,2.58-1.39,10.07,10.07,0,0,1,3.14-.48,16.16,16.16,0,0,1,3.75.38,23.55,23.55,0,0,1,3.08.93l.61,6.28-.4.1c-.47-1-.95-1.95-1.42-2.81a11.6,11.6,0,0,0-1.57-2.23,6.17,6.17,0,0,0-1.95-1.44,5.81,5.81,0,0,0-2.5-.51,5,5,0,0,0-1.7.31,4.36,4.36,0,0,0-1.47.88,4.74,4.74,0,0,0-1,1.47,5.06,5.06,0,0,0-.4,2,3.2,3.2,0,0,0,1.06,2.69,7.34,7.34,0,0,0,2.69,1.21c.74.17,1.55.35,2.43.53s1.63.36,2.28.53a7.56,7.56,0,0,1,3.87,2.33,6.28,6.28,0,0,1,1.59,4.36A7.07,7.07,0,0,1,345.6,445Z"/><path class="cls-1" d="M369.31,443.75a9.3,9.3,0,0,1-1.92,2.55,10.18,10.18,0,0,1-2.91,1.93,9.23,9.23,0,0,1-3.77.76,11.18,11.18,0,0,1-4.71-1,10.21,10.21,0,0,1-3.62-2.7,12.45,12.45,0,0,1-2.3-4.1,15.22,15.22,0,0,1-.81-5,12.59,12.59,0,0,1,2.91-8,11.12,11.12,0,0,1,3.39-2.71,9.48,9.48,0,0,1,4.43-1,13.59,13.59,0,0,1,3.72.5,8.57,8.57,0,0,1,3,1.55,8,8,0,0,1,2.1,2.6,9.64,9.64,0,0,1,1,3.7H353.57c0,.27,0,.58-.05.93s0,.72,0,1.09a13.48,13.48,0,0,0,.61,4.08,10.49,10.49,0,0,0,1.77,3.44,8.05,8.05,0,0,0,2.93,2.35,9.19,9.19,0,0,0,4.1.86,7.67,7.67,0,0,0,4.43-1.29,6.09,6.09,0,0,0,2.51-3.16l.4.1A9.31,9.31,0,0,1,369.31,443.75Zm-5.79-17.06a4.57,4.57,0,0,0-3.47-1.34,4.26,4.26,0,0,0-2.56.83,9.34,9.34,0,0,0-2,1.95,9.56,9.56,0,0,0-1.29,2.25,9.22,9.22,0,0,0-.56,1.75h2.07q.92,0,1.8,0l1.85-.05,2.13,0c.5,0,1,0,1.41,0a4.39,4.39,0,0,0,1.17-.25,4.24,4.24,0,0,0,.53-.76,2.46,2.46,0,0,0,.18-1.07A4.45,4.45,0,0,0,363.52,426.69Z"/><path class="cls-1" d="M387.18,448.94v-.56a11.9,11.9,0,0,0,2.18-.33,1,1,0,0,0,.81-1V434.26a8.85,8.85,0,0,0-1.12-4.74,4.06,4.06,0,0,0-3.74-1.79,5.16,5.16,0,0,0-2.79.7,16.23,16.23,0,0,0-2.48,2.08v16.6a1.32,1.32,0,0,0,.36.74,1.57,1.57,0,0,0,.61.33,3.65,3.65,0,0,0,.8.12,7,7,0,0,1,1,.13v.51H373v-.51a6.61,6.61,0,0,0,2-.46,1.2,1.2,0,0,0,.83-1.16V429.4a1.6,1.6,0,0,0-.08-.61,1.07,1.07,0,0,0-.42-.46l-1.07-.58a13.32,13.32,0,0,0-1.21-.58v-.3l6.63-2.38h.3V430l.1.05a20.23,20.23,0,0,1,1.39-1.84,12.41,12.41,0,0,1,1.89-1.8,10.47,10.47,0,0,1,2.32-1.34,6.61,6.61,0,0,1,2.63-.53,5.17,5.17,0,0,1,4.48,2.17,9.37,9.37,0,0,1,1.57,5.62v14.88a.75.75,0,0,0,.33.61,2.18,2.18,0,0,0,.78.38,7.22,7.22,0,0,0,1,.2c.35,0,.68.1,1,.13v.46Z"/><path class="cls-1" d="M450.66,426.13a22.36,22.36,0,0,0-4,3.29,53.79,53.79,0,0,0-3.72,4.3c-1.21,1.57-2.49,3.14-3.84,4.69l1.62,2.1a31.07,31.07,0,0,0,2.27,2.6,14.64,14.64,0,0,0,2.66,2.23,6,6,0,0,0,3.32.86,4.56,4.56,0,0,0,1.9-.4,7.75,7.75,0,0,0,1.64-1,10,10,0,0,0,1.37-1.31,9.41,9.41,0,0,0,1-1.32l.46.2a9.52,9.52,0,0,1-1.29,2.31,13.75,13.75,0,0,1-2.26,2.4,11.75,11.75,0,0,1-3,1.83,8.58,8.58,0,0,1-3.42.7,8,8,0,0,1-3.08-.58,10.66,10.66,0,0,1-2.66-1.59,16.2,16.2,0,0,1-2.3-2.31,25.15,25.15,0,0,1-1.93-2.65,18.49,18.49,0,0,1-1.82,2.17,17.64,17.64,0,0,1-2.71,2.28,15.3,15.3,0,0,1-3.42,1.75,11.49,11.49,0,0,1-3.94.68,12.35,12.35,0,0,1-4.21-.68,8.68,8.68,0,0,1-3.13-1.93,8.29,8.29,0,0,1-1.95-2.91,9,9,0,0,1-.69-3.49,8.75,8.75,0,0,1,.89-3.92,12.13,12.13,0,0,1,2.33-3.24,19.3,19.3,0,0,1,3.21-2.58,36.1,36.1,0,0,1,3.5-2c-.75-.78-1.44-1.48-2.08-2.1a14.18,14.18,0,0,1-1.67-1.95,9.57,9.57,0,0,1-1.14-2.23,8.58,8.58,0,0,1-.43-2.89,6.16,6.16,0,0,1,.78-3.06,8.16,8.16,0,0,1,2-2.38,9.67,9.67,0,0,1,2.78-1.54,9.18,9.18,0,0,1,3.12-.56,9.08,9.08,0,0,1,2.68.41,7.34,7.34,0,0,1,2.35,1.19,6.14,6.14,0,0,1,1.7,2,5.83,5.83,0,0,1,.66,2.83,6.14,6.14,0,0,1-.71,2.94,11,11,0,0,1-1.65,2.3,11.19,11.19,0,0,1-1.89,1.64c-.65.44-1.14.76-1.47,1a29.75,29.75,0,0,1,2.88,2.55c.88.9,1.74,1.82,2.59,2.76s1.81,2.18,2.6,3.29,1.48,2.15,2.05,3.09c.78-1,1.51-2,2.2-2.94s1.3-1.9,1.83-2.78a19.67,19.67,0,0,0,1.23-2.4,4.76,4.76,0,0,0,.46-1.75,2.37,2.37,0,0,0-.58-1.72,3.51,3.51,0,0,0-1.54-.91,8.76,8.76,0,0,0-2.13-.38c-.78-.05-1.55-.1-2.33-.13v-.61l17.67-.4v.61A11.7,11.7,0,0,0,450.66,426.13Zm-16.91,13.72c-.4-.59-.82-1.16-1.24-1.72s-.88-1.13-1.37-1.72l-1.64-2c-.34-.41-.75-.86-1.24-1.37s-1-1-1.52-1.49-1-1-1.52-1.39L424,429a20.5,20.5,0,0,0-1.77,1.67,14.82,14.82,0,0,0-1.67,2.13,11.59,11.59,0,0,0-1.24,2.55,8.9,8.9,0,0,0-.48,2.92,8.16,8.16,0,0,0,.51,2.88,7.15,7.15,0,0,0,1.46,2.41,6.87,6.87,0,0,0,2.28,1.62,7.21,7.21,0,0,0,2.89.58,13.62,13.62,0,0,0,2.78-.26,9.89,9.89,0,0,0,2.25-.73,11.22,11.22,0,0,0,2-1.21c.64-.49,1.32-1.06,2-1.7C434.58,441.12,434.16,440.44,433.75,439.85ZM430.18,417a7.26,7.26,0,0,0-.93-2,5.29,5.29,0,0,0-1.47-1.44,3.41,3.41,0,0,0-1.88-.55,2.9,2.9,0,0,0-1.56.4,3.46,3.46,0,0,0-1.07,1,5.2,5.2,0,0,0-.81,2.64,8.07,8.07,0,0,0,.31,2.53,7.86,7.86,0,0,0,1.06,2,12.29,12.29,0,0,0,1.85,2.1l2.35,2.1a8.75,8.75,0,0,0,1.9-2.83,9.77,9.77,0,0,0,.58-3.6A8.25,8.25,0,0,0,430.18,417Z"/><path class="cls-1" d="M499.1,426.41a9.42,9.42,0,0,1-1.59,2.68,9.85,9.85,0,0,1-2.31,2,13.42,13.42,0,0,1-2.68,1.34,16.49,16.49,0,0,1-3,.76c-1.08.17-2.16.3-3.26.38s-2.17.13-3.22.13h-2.73v4.76q0,.85,0,1.59c0,.49,0,1,0,1.6,0,1.08.07,2,.1,2.78a3.69,3.69,0,0,0,.56,1.92,4.25,4.25,0,0,0,1.57,1.32,7.39,7.39,0,0,0,3.24.76v.51h-16.2v-.51a13.94,13.94,0,0,0,2.43-.61,3.92,3.92,0,0,0,1.82-1.21,2.27,2.27,0,0,0,.41-.91,9.83,9.83,0,0,0,.22-1.37c0-.51.1-1.05.13-1.62s0-1.13,0-1.67,0-1.11,0-1.92,0-1.7.05-2.66,0-1.95,0-3V420.69c0-.61,0-1.22,0-1.85s-.05-1.21-.1-1.77a9.23,9.23,0,0,0-.26-1.52,2.08,2.08,0,0,0-.48-1,3.75,3.75,0,0,0-1.95-1.08q-1.19-.28-2.55-.48v-.51h1.21l2.26,0,2.8,0c1,0,2,0,3,0l2.8,0h2.28a47.27,47.27,0,0,1,5.93.33,13.39,13.39,0,0,1,4.85,1.59,10.31,10.31,0,0,1,3.7,3.44,9.36,9.36,0,0,1,1.47,5.27A8.94,8.94,0,0,1,499.1,426.41Zm-6.35-8.86a9.54,9.54,0,0,0-3.93-3.44,9.66,9.66,0,0,0-2.57-.76,20.2,20.2,0,0,0-2.84-.2,14,14,0,0,0-1.65.07l-.93.13a4.58,4.58,0,0,1-.13.53,4.29,4.29,0,0,0-.13.58c0,.24-.06.57-.1,1s-.06,1-.1,1.8c0,1.18-.06,2.61-.07,4.3s0,3.34,0,5V433c1.38,0,2.68,0,3.9-.13a12.67,12.67,0,0,0,3.39-.68,9.5,9.5,0,0,0,5-3.67,10,10,0,0,0,1.72-5.74A9.35,9.35,0,0,0,492.75,417.55Z"/><path class="cls-1" d="M525.07,445.85a6.41,6.41,0,0,1-1.06,1.64,4.5,4.5,0,0,1-1.55,1.12,5.13,5.13,0,0,1-5-.64,4.17,4.17,0,0,1-1.34-3.54l-.1-.05a13.07,13.07,0,0,1-1.09,1.47,10.76,10.76,0,0,1-1.62,1.52,8.37,8.37,0,0,1-2.08,1.14,7.13,7.13,0,0,1-2.5.43,6.37,6.37,0,0,1-1.65-.23,3.83,3.83,0,0,1-1.51-.81,4.47,4.47,0,0,1-1.12-1.49,5.31,5.31,0,0,1-.43-2.23,4.15,4.15,0,0,1,1.14-2.74,13,13,0,0,1,2.81-2.38c1.11-.7,2.1-1.31,3-1.82l2.25-1.29c.64-.35,1.21-.66,1.7-.91s.9-.48,1.24-.68v-5.22a1.85,1.85,0,0,0-.18-.48,2.69,2.69,0,0,0-.61-.78,4.06,4.06,0,0,0-1.18-.74,5,5,0,0,0-2-.33,4.84,4.84,0,0,0-1.59.28,6.12,6.12,0,0,0-1.4.71,5.56,5.56,0,0,0-1,.86,1.29,1.29,0,0,0-.35.74v2.27a1.59,1.59,0,0,1-.74,1.27,2.59,2.59,0,0,1-1.59.56,1.88,1.88,0,0,1-1.39-.59,1.82,1.82,0,0,1-.59-1.34,2.16,2.16,0,0,1,.31-1.11,3.88,3.88,0,0,1,.76-.91,5.69,5.69,0,0,1,1-.71c.36-.2.67-.39.94-.56.88-.5,1.77-1,2.69-1.47s1.77-.87,2.6-1.21a22.89,22.89,0,0,1,2.28-.81,6.41,6.41,0,0,1,1.69-.3,4.81,4.81,0,0,1,2.49.68,4.19,4.19,0,0,1,1.67,1.7,3.06,3.06,0,0,1,.25,1.24c0,.59,0,1.17,0,1.74,0,1.22,0,2.31,0,3.29s0,1.93,0,2.84,0,1.84,0,2.81,0,2,0,3.16c0,1.52.26,2.52.78,3a2.87,2.87,0,0,0,3.52.26,2.46,2.46,0,0,0,.76-1.24h.3A5.17,5.17,0,0,1,525.07,445.85Zm-9-10.68a20.84,20.84,0,0,1-2.28,1.39c-.91.49-1.8,1-2.66,1.59a12.32,12.32,0,0,0-2.23,1.9,3.44,3.44,0,0,0-.93,2.36,3.53,3.53,0,0,0,.91,2.37,3,3,0,0,0,2.38,1.07,7.87,7.87,0,0,0,2.33-.31,4.46,4.46,0,0,0,1.87-1.16,1.82,1.82,0,0,0,.61-1.42Z"/><path class="cls-1" d="M543.85,429a2,2,0,0,1-1.52.73,2.52,2.52,0,0,1-1.29-.28,3.84,3.84,0,0,1-.84-.63,4.91,4.91,0,0,0-.75-.63,2,2,0,0,0-1.12-.28,2,2,0,0,0-1.19.43,5.62,5.62,0,0,0-1.09,1.09,9,9,0,0,0-.91,1.49c-.27.56-.5,1.09-.71,1.59v14.58a1.24,1.24,0,0,0,.66.71,4,4,0,0,0,1.14.36,11,11,0,0,0,1.32.12,7.73,7.73,0,0,1,1.19.13v.51H527.4v-.51a6.61,6.61,0,0,0,2-.46,1.2,1.2,0,0,0,.83-1.16V429.7a1.92,1.92,0,0,0-.07-.61,1.33,1.33,0,0,0-.43-.45c-.31-.17-.66-.38-1.07-.64a8.75,8.75,0,0,0-1.21-.63v-.3l6.63-2.58h.3l-.1,7h.1q.25-.6.81-1.77a15.15,15.15,0,0,1,1.42-2.35,8.62,8.62,0,0,1,2.08-2,4.61,4.61,0,0,1,2.78-.86,3.18,3.18,0,0,1,2.15.76,2.41,2.41,0,0,1,.89,1.92A2.67,2.67,0,0,1,543.85,429Z"/><path class="cls-1" d="M561.42,428.08h-7.7v13.31a5.32,5.32,0,0,0,1.11,3.75,3.82,3.82,0,0,0,2.89,1.16,5.42,5.42,0,0,0,2.43-.48,4.44,4.44,0,0,0,1.67-1.49l.3.15a9.83,9.83,0,0,1-.83,1.6,6.11,6.11,0,0,1-1.42,1.51,6.7,6.7,0,0,1-2.08,1.07,9.34,9.34,0,0,1-2.8.38,6.32,6.32,0,0,1-2-.33,5.21,5.21,0,0,1-1.73-1,5.8,5.8,0,0,1-1.22-1.42,3,3,0,0,1-.48-1.6c0-3.17,0-6.18.05-9s0-5.39,0-7.62h-3.7v-.56l7.3-6.93h.4V425H563Z"/><path class="cls-1" d="M578.52,448.94v-.56a11.9,11.9,0,0,0,2.18-.33,1,1,0,0,0,.81-1V434.26a8.94,8.94,0,0,0-1.11-4.74,4.09,4.09,0,0,0-3.75-1.79,5.1,5.1,0,0,0-2.78.7,15.32,15.32,0,0,0-2.48,2.08v16.6a1.25,1.25,0,0,0,.35.74,1.57,1.57,0,0,0,.61.33,3.65,3.65,0,0,0,.81.12,7.08,7.08,0,0,1,1,.13v.51h-9.77v-.51a6.54,6.54,0,0,0,2-.46,1.18,1.18,0,0,0,.83-1.16V429.4a1.88,1.88,0,0,0-.07-.61,1.1,1.1,0,0,0-.43-.46l-1.06-.58a13.48,13.48,0,0,0-1.22-.58v-.3l6.63-2.38h.31V430l.1.05a18.33,18.33,0,0,1,1.38-1.84,12.41,12.41,0,0,1,1.89-1.8A10.31,10.31,0,0,1,577,425a6.53,6.53,0,0,1,2.62-.53,5.2,5.2,0,0,1,4.49,2.17,9.43,9.43,0,0,1,1.56,5.62v14.88a.75.75,0,0,0,.33.61,2.15,2.15,0,0,0,.79.38,6.78,6.78,0,0,0,1,.2l1,.13v.46Z"/><path class="cls-1" d="M611.58,443.75a9.34,9.34,0,0,1-1.93,2.55,10.27,10.27,0,0,1-2.9,1.93A9.25,9.25,0,0,1,603,449a11.1,11.1,0,0,1-4.7-1,10.21,10.21,0,0,1-3.62-2.7,12.47,12.47,0,0,1-2.31-4.1,15.22,15.22,0,0,1-.81-5,12.51,12.51,0,0,1,.76-4.23,12.78,12.78,0,0,1,2.15-3.77,11,11,0,0,1,3.4-2.71,9.48,9.48,0,0,1,4.43-1,13.52,13.52,0,0,1,3.71.5,8.49,8.49,0,0,1,3,1.55,8,8,0,0,1,2.1,2.6,9.46,9.46,0,0,1,1,3.7H595.84a8.3,8.3,0,0,1-.06.93c0,.36,0,.72,0,1.09a13.79,13.79,0,0,0,.6,4.08,10.88,10.88,0,0,0,1.77,3.44,8.17,8.17,0,0,0,2.94,2.35,9.19,9.19,0,0,0,4.1.86,7.7,7.7,0,0,0,4.43-1.29,6.09,6.09,0,0,0,2.51-3.16l.4.1A9.66,9.66,0,0,1,611.58,443.75Zm-5.8-17.06a4.56,4.56,0,0,0-3.47-1.34,4.25,4.25,0,0,0-2.55.83,9.34,9.34,0,0,0-2,1.95,10,10,0,0,0-1.3,2.25,9,9,0,0,0-.55,1.75H598q.91,0,1.8,0l1.85-.05,2.12,0c.51,0,1,0,1.42,0a4.39,4.39,0,0,0,1.17-.25,4.24,4.24,0,0,0,.53-.76,2.46,2.46,0,0,0,.18-1.07A4.46,4.46,0,0,0,605.78,426.69Z"/><path class="cls-1" d="M631.78,429a2,2,0,0,1-1.52.73,2.52,2.52,0,0,1-1.29-.28,3.84,3.84,0,0,1-.84-.63,5,5,0,0,0-.76-.63,1.9,1.9,0,0,0-1.11-.28,2,2,0,0,0-1.19.43,5.62,5.62,0,0,0-1.09,1.09,8.33,8.33,0,0,0-.91,1.49c-.27.56-.51,1.09-.71,1.59v14.58a1.2,1.2,0,0,0,.66.71,3.91,3.91,0,0,0,1.14.36,11,11,0,0,0,1.31.12,7.45,7.45,0,0,1,1.19.13v.51H615.33v-.51a6.48,6.48,0,0,0,2-.46,1.19,1.19,0,0,0,.84-1.16V429.7a1.87,1.87,0,0,0-.08-.61,1.16,1.16,0,0,0-.43-.45c-.3-.17-.65-.38-1.06-.64a8.85,8.85,0,0,0-1.22-.63v-.3l6.64-2.58h.3l-.1,7h.1q.26-.6.81-1.77a14.41,14.41,0,0,1,1.42-2.35,8.58,8.58,0,0,1,2.07-2,4.66,4.66,0,0,1,2.79-.86,3.18,3.18,0,0,1,2.15.76,2.4,2.4,0,0,1,.88,1.92A2.71,2.71,0,0,1,631.78,429Z"/><path class="cls-1" d="M651.09,445a6.93,6.93,0,0,1-2.1,2.36,9,9,0,0,1-3,1.31,15.44,15.44,0,0,1-3.57.41,20.78,20.78,0,0,1-4.2-.41,17.52,17.52,0,0,1-3.65-1.16v-6.68H635a24.72,24.72,0,0,0,1,2.55,12.77,12.77,0,0,0,1.47,2.48,7.38,7.38,0,0,0,2.06,1.88,5.46,5.46,0,0,0,2.88.73,5.29,5.29,0,0,0,3.85-1.39,5.72,5.72,0,0,0,1.44-4.28,3.68,3.68,0,0,0-1-2.61,5.06,5.06,0,0,0-2.7-1.39c-.91-.17-1.78-.35-2.62-.56s-1.6-.42-2.27-.65a6.28,6.28,0,0,1-3.1-2.28,6.43,6.43,0,0,1-1.19-3.9,6,6,0,0,1,.66-2.83,6.91,6.91,0,0,1,1.77-2.18,8,8,0,0,1,2.59-1.39,10,10,0,0,1,3.13-.48,16.16,16.16,0,0,1,3.75.38,24.17,24.17,0,0,1,3.09.93l.6,6.28-.4.1c-.47-1-1-1.95-1.42-2.81a11.18,11.18,0,0,0-1.57-2.23,6.25,6.25,0,0,0-1.94-1.44,5.89,5.89,0,0,0-2.51-.51,5,5,0,0,0-1.7.31,4.21,4.21,0,0,0-2.5,2.35,4.9,4.9,0,0,0-.41,2,3.17,3.17,0,0,0,1.07,2.69,7.21,7.21,0,0,0,2.68,1.21c.74.17,1.55.35,2.43.53s1.63.36,2.28.53a7.48,7.48,0,0,1,3.87,2.33,6.28,6.28,0,0,1,1.59,4.36A7.07,7.07,0,0,1,651.09,445Z"/><path class="cls-1" d="M264,489.63c2.31-.12,2.48-.54,2.48-2.43v-9.66c0-2.12-.19-2.53-2.23-2.63v-.35h10.71c0,.86.12,2.32.22,3.77l-.42.07c-.52-2.51-1-3.25-4-3.25h-2.32c-.66,0-.69.05-.69.69v5.77h2.88c1.95,0,2.41-.25,2.79-1.9h.41v4.58h-.41c-.4-1.9-.92-2-2.79-2h-2.88v4.81c0,2.31,1,2.31,3.05,2.31,1.51,0,3,0,3.77-.93a7.77,7.77,0,0,0,1.38-2.44h.42c-.22.91-.69,3.1-.89,3.94H264Z"/><path class="cls-1" d="M289.56,473.82a14.12,14.12,0,0,0,3.27-.83v14.48c0,1.2.3,1.45,1.11,1.55l.89.07v.3a17.44,17.44,0,0,0-3.18.86V488.5l-1.43.79a7,7,0,0,1-2.53,1A4.82,4.82,0,0,1,283,485.3c-.05-3.23,2.73-5.84,6.47-5.84a9.12,9.12,0,0,1,2.17.27v-3.64c0-1.68-.2-1.75-2.09-1.95Zm2.09,7.64a4.07,4.07,0,0,0-3.25-1.28c-1.58,0-4,.88-4,4.45,0,2.81,1.84,4.51,4,4.51a5.16,5.16,0,0,0,3.17-1.33Z"/><path class="cls-1" d="M303.47,486c0,2.47,1.18,3.11,2.56,3.11a4.73,4.73,0,0,0,3.2-1.53v-5.42c0-1.45-.34-1.55-1.23-1.72l-.93-.15V480a19.27,19.27,0,0,0,3.35-.44v8c0,1.23.27,1.36,1.23,1.43l.74,0v.35a14.64,14.64,0,0,0-3,.83l-.13-.12v-1.9a14.88,14.88,0,0,1-2.11,1.46,3.37,3.37,0,0,1-1.87.54c-1.48,0-3-.76-3-3.5V482.2c0-1.46-.37-1.58-.89-1.73l-.78-.17v-.25c.56-.05,2.39-.34,2.93-.46a27,27,0,0,0-.08,3.2Z"/><path class="cls-1" d="M327.68,487.76a5.88,5.88,0,0,1-4.21,2.49,4.79,4.79,0,0,1-4.9-4.75c0-4.58,4.36-6,6.11-6,.66,0,2.63.42,2.63,1.21a1,1,0,0,1-.84.86c-.1,0-.19-.07-.34-.2a4.32,4.32,0,0,0-2.93-.88c-1.48,0-3.3,1.16-3.3,4,0,3.52,2.54,4.63,4.14,4.63a4.11,4.11,0,0,0,3.35-1.67Z"/><path class="cls-1" d="M341.13,490.25a1.77,1.77,0,0,1-1.33-1.6c-1,.74-2.07,1.6-3,1.6a2.77,2.77,0,0,1-2.86-2.81c0-1.11.76-1.89,2.46-2.41a18.69,18.69,0,0,0,3.38-1.31c0-1.2,0-3.35-2.24-3.35-.4,0-1.73.13-2.15,2.1a.54.54,0,0,1-.54.42.83.83,0,0,1-.74-.84,1.13,1.13,0,0,1,.69-.89,12.67,12.67,0,0,1,3.48-1.7,2.71,2.71,0,0,1,2.73,3v5.29c0,1,.37,1.41.88,1.41a2.12,2.12,0,0,0,1.09-.32l.22.41Zm-1.33-5.91c-.52.29-2.07.89-2.61,1.11-1.11.42-1.78.88-1.78,1.79a1.92,1.92,0,0,0,1.92,1.95,3.72,3.72,0,0,0,2.47-1.26Z"/><path class="cls-1" d="M353.61,490a1.86,1.86,0,0,1-1,.27c-1.38,0-2-1-2-2.66v-7.07h-1.77l-.08-.27.66-.52h1.19v-1.35l.83-1.68.35,0v3.05h2.95a.67.67,0,0,1,.08.3.65.65,0,0,1-.25.49h-2.78v6.4c0,2,.66,2.42,1.48,2.42a3.3,3.3,0,0,0,1.69-.5l.2.37Z"/><path class="cls-1" d="M360.65,489.63c1.58-.12,1.83-.44,1.83-1.87v-5.12c0-1.58-.17-1.7-1.58-1.95v-.32a10.1,10.1,0,0,0,2.76-1v8.37c0,1.43.25,1.75,1.85,1.87V490h-4.86ZM364,475a1,1,0,0,1-.94,1,1,1,0,1,1,.94-1Z"/><path class="cls-1" d="M382.67,484.66a5.48,5.48,0,0,1-5.42,5.59,5.26,5.26,0,0,1-5.46-5.15,5.52,5.52,0,0,1,5.41-5.64A5.29,5.29,0,0,1,382.67,484.66Zm-9.33-.37c0,3.15,1.65,5.39,4.26,5.39,2.06,0,3.57-1.33,3.57-4.65,0-2.39-1.45-5-4.19-5C374.71,480.05,373.34,481.83,373.34,484.29Z"/><path class="cls-1" d="M389.34,489.63c1.43-.1,1.83-.46,1.83-1.94v-4.95c0-1.65-.17-1.75-1.55-2v-.32a7.68,7.68,0,0,0,2.73-1v2.05c.49-.3,1.11-.74,1.87-1.26a3.79,3.79,0,0,1,2-.69,3,3,0,0,1,3.2,3.2v4.9c0,1.73.23,2,1.61,2.07V490h-4.76v-.35c1.68-.1,2-.44,2-2.07v-4c0-1.41-.39-3-2.66-3a5,5,0,0,0-3.22,1.5v5.54c0,1.58.25,1.94,1.94,2V490h-5Z"/><path class="cls-1" d="M414.66,490.25a2.31,2.31,0,0,1-.79-.44,2.41,2.41,0,0,1-.54-1.16c-1,.74-2.07,1.6-3,1.6a2.77,2.77,0,0,1-2.86-2.81c0-1.11.77-1.89,2.47-2.41a18.84,18.84,0,0,0,3.37-1.31c0-1.2,0-3.35-2.24-3.35-.4,0-1.73.13-2.14,2.1a.55.55,0,0,1-.55.42.82.82,0,0,1-.73-.84,1.11,1.11,0,0,1,.69-.89,12.45,12.45,0,0,1,3.47-1.7,2.71,2.71,0,0,1,2.73,3v5.29c0,1,.37,1.41.89,1.41a2.12,2.12,0,0,0,1.08-.32l.22.41Zm-1.33-5.91c-.52.29-2.07.89-2.61,1.11-1.11.42-1.77.88-1.77,1.79a1.91,1.91,0,0,0,1.92,1.95,3.71,3.71,0,0,0,2.46-1.26Z"/><path class="cls-1" d="M422.12,489.63c1.58-.1,1.82-.44,1.82-2V476.14c0-1.7-.19-1.87-1.77-2v-.3a9.91,9.91,0,0,0,3-.83v14.67c0,1.53.22,1.87,1.84,2V490h-4.85Z"/><path class="cls-1" d="M458.86,485.5a38.33,38.33,0,0,1-1.28,4.16,30.52,30.52,0,0,1-4.95.69c-6.45,0-9.21-4.14-9.18-7.86,0-4.92,4.14-8.3,9.7-8.3a17.57,17.57,0,0,1,4.65.69c.2,1.23.32,2.42.47,3.82l-.42.07c-.69-2.85-2.36-4-5.56-4-4.88,0-7.07,3.22-7.07,7.07,0,4.77,2.86,7.88,7.21,7.88,3.43,0,4.83-1.85,6-4.39Z"/><path class="cls-1" d="M476.2,484.66a5.49,5.49,0,0,1-5.42,5.59,5.27,5.27,0,0,1-5.47-5.15,5.52,5.52,0,0,1,5.42-5.64A5.3,5.3,0,0,1,476.2,484.66Zm-9.33-.37c0,3.15,1.65,5.39,4.26,5.39,2.06,0,3.57-1.33,3.57-4.65,0-2.39-1.45-5-4.19-5C468.24,480.05,466.87,481.83,466.87,484.29Z"/><path class="cls-1" d="M482.87,489.63c1.43-.1,1.82-.46,1.82-1.94v-4.95c0-1.65-.17-1.75-1.55-2v-.32a7.66,7.66,0,0,0,2.74-1v2.05c.49-.3,1.1-.74,1.87-1.26a3.79,3.79,0,0,1,2-.69,3,3,0,0,1,3.2,3.2v4.9c0,1.73.22,2,1.6,2.07V490h-4.75v-.35c1.68-.1,2-.44,2-2.07v-4c0-1.41-.39-3-2.66-3a5,5,0,0,0-3.22,1.5v5.54c0,1.58.24,1.94,1.94,2V490h-4.95Z"/><path class="cls-1" d="M501.37,486.63c.46,1.58,1.57,3.08,3.07,3.08a1.82,1.82,0,0,0,2-1.95c0-1.3-.83-1.94-2-2.44-1.55-.59-2.93-1.4-2.93-2.95s1.38-2.93,3.52-2.91a4.41,4.41,0,0,1,1.92.4,16.06,16.06,0,0,1,.47,2.48l-.35.15c-.41-1.23-1.32-2.49-2.58-2.49a1.72,1.72,0,0,0-1.82,1.83c0,1.2,1.2,1.79,2.19,2.19,1.72.66,2.93,1.55,2.93,3.15,0,2-1.8,3.08-3.69,3.08a4,4,0,0,1-2.66-.81,15,15,0,0,1-.37-2.69Z"/><path class="cls-1" d="M516.83,486c0,2.47,1.18,3.11,2.56,3.11a4.77,4.77,0,0,0,3.21-1.53v-5.42c0-1.45-.35-1.55-1.24-1.72l-.93-.15V480a19.27,19.27,0,0,0,3.35-.44v8c0,1.23.27,1.36,1.23,1.43l.74,0v.35a14.64,14.64,0,0,0-3,.83l-.12-.12v-1.9a16.28,16.28,0,0,1-2.12,1.46,3.37,3.37,0,0,1-1.88.54c-1.47,0-3-.76-3-3.5V482.2c0-1.46-.37-1.58-.89-1.73l-.79-.17v-.25c.57-.05,2.4-.34,2.94-.46a27,27,0,0,0-.08,3.2Z"/><path class="cls-1" d="M531.31,489.63c1.58-.1,1.82-.44,1.82-2V476.14c0-1.7-.19-1.87-1.77-2v-.3a9.91,9.91,0,0,0,3-.83v14.67c0,1.53.22,1.87,1.84,2V490h-4.85Z"/><path class="cls-1" d="M546.87,490a1.86,1.86,0,0,1-1,.27c-1.37,0-2-1-2-2.66v-7.07h-1.77l-.08-.27.67-.52h1.18v-1.35l.84-1.68.34,0v3.05h3a.66.66,0,0,1,.07.3.64.64,0,0,1-.24.49H545v6.4c0,2,.67,2.42,1.48,2.42a3.34,3.34,0,0,0,1.7-.5l.2.37Z"/><path class="cls-1" d="M553.92,489.63c1.58-.12,1.82-.44,1.82-1.87v-5.12c0-1.58-.17-1.7-1.58-1.95v-.32a9.87,9.87,0,0,0,2.76-1v8.37c0,1.43.25,1.75,1.85,1.87V490h-4.85ZM557.29,475a1,1,0,0,1-.93,1,1,1,0,1,1,.93-1Z"/><path class="cls-1" d="M564.78,489.63c1.43-.1,1.82-.46,1.82-1.94v-4.95c0-1.65-.17-1.75-1.55-2v-.32a7.61,7.61,0,0,0,2.73-1v2.05c.49-.3,1.11-.74,1.87-1.26a3.82,3.82,0,0,1,2-.69,3,3,0,0,1,3.2,3.2v4.9c0,1.73.22,2,1.6,2.07V490H571.7v-.35c1.67-.1,2-.44,2-2.07v-4c0-1.41-.4-3-2.66-3a5,5,0,0,0-3.23,1.5v5.54c0,1.58.25,1.94,2,2V490h-5Z"/><path class="cls-1" d="M590.29,480.87a3.23,3.23,0,0,1,.84,2.09,3.93,3.93,0,0,1-4.07,3.82,6.76,6.76,0,0,1-.88-.08c-.62.22-1.43.74-1.43,1.26s.57.91,1.53.91,2-.1,2.93-.1c1.7,0,3.45.49,3.45,2.76s-2.69,4.7-5.92,4.7c-2.71,0-4.18-1.57-4.18-3.15a2.44,2.44,0,0,1,.49-1.43,22.75,22.75,0,0,1,2.17-1.8c-1-.22-2.14-1.08-2.05-2.11a6.7,6.7,0,0,0,2.29-1.28,3.35,3.35,0,0,1-2.24-3,4.05,4.05,0,0,1,6.18-3.4,30.24,30.24,0,0,0,3.3-.42l.15.2a4.73,4.73,0,0,1-1.11,1ZM584,492.56c0,1.55,1.43,2.81,3.5,2.81,2.78,0,4.06-1.53,4.06-3.25a2,2,0,0,0-1-1.82,5.71,5.71,0,0,0-2.88-.42C584.08,489.88,584,492.15,584,492.56Zm.79-9.8c0,2.29,1.13,3.52,2.66,3.52,1.11,0,2.22-.78,2.22-2.88s-.89-3.47-2.57-3.47C585.71,480,584.75,480.92,584.75,482.76Z"/><path class="cls-1" d="M423.94,342.49a1.26,1.26,0,0,1-.62-.17l-.13-.08a90.2,90.2,0,0,0-22.09-11.3,82.21,82.21,0,0,0-27.91-4.51,1.23,1.23,0,0,1,0-2.46,85.12,85.12,0,0,1,28.72,4.64,92.18,92.18,0,0,1,22.06,11.17,92.14,92.14,0,0,1,21.93-11.09,80.21,80.21,0,0,1,27.74-4.81,1.23,1.23,0,0,1,0,2.46h0A77.57,77.57,0,0,0,446.65,331a89.77,89.77,0,0,0-22,11.26A1.24,1.24,0,0,1,423.94,342.49Z"/><path class="cls-1" d="M424.23,348.67a1.16,1.16,0,0,1-.62-.17l-.14-.08a90,90,0,0,0-22.08-11.3,77.87,77.87,0,0,0-30.14-4.53,1.23,1.23,0,0,1-.14-2.45,80.24,80.24,0,0,1,31.06,4.65A92.48,92.48,0,0,1,424.22,346a92.4,92.4,0,0,1,21.94-11.09c10.65-3.66,20.34-5.33,29.58-5.1a1.23,1.23,0,0,1,0,2.45h0c-9-.22-18.36,1.41-28.74,5a89.77,89.77,0,0,0-22,11.26A1.24,1.24,0,0,1,424.23,348.67Z"/><path class="cls-1" d="M390.14,241.14l-1.43,1.92,5.55,4.22a1.26,1.26,0,0,1,.24,1.74l-4.5,6,3.06,2.32,4.43-5.91a1.22,1.22,0,0,1,1.7-.23l3.74,2.84a1.2,1.2,0,0,1,.47.82,1.21,1.21,0,0,1-.23.92l-4.21,5.6,2,1.51,4.14-5.52a1.22,1.22,0,0,1,1.7-.23c4.41,3.39,8.53,6.6,12.51,9.72.11.07.2.15.31.23l1.69,1.33-2,1.53-1.16-.91-.84-.65c-3.52-2.76-7.14-5.6-11-8.55l-4.15,5.52a1.19,1.19,0,0,1-1.69.23l-3.94-3a1.26,1.26,0,0,1-.47-.82,1.2,1.2,0,0,1,.23-.92l4.21-5.6-1.81-1.37-4.43,5.91a1.22,1.22,0,0,1-1.7.23l-5-3.8a1.25,1.25,0,0,1-.47-.81,1.29,1.29,0,0,1,.24-.91l4.5-6-5.56-4.23a1.26,1.26,0,0,1-.48-.81,1.34,1.34,0,0,1,.24-.91l2.92-3.88a1.18,1.18,0,0,1,1.69-.23l33,25.08,2,1.54-2,1.53-2-1.53Z"/><path class="cls-1" d="M441.5,285.31a1.22,1.22,0,0,1-1,.51,1.27,1.27,0,0,1-.71-.23c-.22-.16-.45-.33-.67-.51h0c-5.38-3.95-10.39-7.8-15.45-11.75-.67-.52-1.33-1-2-1.56l2-1.53c.66.53,1.32,1.05,2,1.56,4.8,3.74,9.57,7.4,14.67,11.15l.89.65A1.24,1.24,0,0,1,441.5,285.31Z"/><path class="cls-1" d="M444.94,281.22a1.2,1.2,0,0,1-1.7.25l-1-.79L428.08,270l-2-1.54,1.11-.85.88-.72,2,1.52,14,10.64.63.49A1.23,1.23,0,0,1,444.94,281.22Z"/><path class="cls-1" d="M454.12,309.46a16.65,16.65,0,0,1-10.09-3.4,19,19,0,0,1-3.87-4.14,16.81,16.81,0,0,1-1.29-2.36,17.07,17.07,0,0,1-1.48-7.91h0a17.41,17.41,0,0,1,.77-4.24,19,19,0,0,1,2.61-5.06,16.76,16.76,0,0,1,30,7.84,16.91,16.91,0,0,1-16.69,19.27Zm-14.3-17.68a15,15,0,0,0,1.26,6.77,14.55,14.55,0,0,0,1.1,2,16.62,16.62,0,0,0,3.31,3.53,14.34,14.34,0,0,0,20.14-2.84A14.52,14.52,0,0,0,462.85,281a14.34,14.34,0,0,0-20.14,2.85,16.84,16.84,0,0,0-2.24,4.32,14.34,14.34,0,0,0-.65,3.62Z"/><path class="cls-1" d="M454.23,304a11.06,11.06,0,0,1-7.18-2.63,11.19,11.19,0,0,1-3.94-7.66,11.31,11.31,0,0,1,2.6-8.24,12.87,12.87,0,0,1,2.24-2,11.38,11.38,0,0,1,2.23-1.19h0a11.15,11.15,0,0,1,8.79.25,13,13,0,0,1,2.5,1.61,11.28,11.28,0,0,1-7.24,19.9Zm-3.17-19.47a8.82,8.82,0,0,0-1.74.93,10.66,10.66,0,0,0-1.76,1.6A8.75,8.75,0,1,0,459.92,286a10.27,10.27,0,0,0-2-1.26,8.41,8.41,0,0,0-2.74-.76,8.86,8.86,0,0,0-4.15.56Z"/><path class="cls-1" d="M518.61,158.17a1.15,1.15,0,0,1-.48-.1l-28.32-12.58a1.24,1.24,0,0,1,.05-2.27l28.31-11.31a1.24,1.24,0,0,1,.89,0l28.31,11.31a1.22,1.22,0,0,1,.77,1.12,1.24,1.24,0,0,1-.72,1.15L519.1,158.07A1.16,1.16,0,0,1,518.61,158.17Zm-25.15-13.75,25.15,11.18,25.16-11.18-25.16-10Z"/><path class="cls-1" d="M518,163.11a39,39,0,0,1-15.44-3.19,1.23,1.23,0,0,1-.74-1.13v-7.85a1.22,1.22,0,1,1,2.43,0v7a36.54,36.54,0,0,0,27.53,0v-7a1.22,1.22,0,1,1,2.43,0v7.85a1.23,1.23,0,0,1-.74,1.13A39.06,39.06,0,0,1,519,163.09Z"/><path class="cls-1" d="M511.14,191.22a13.49,13.49,0,0,1-7.86-2.35c-5.4-3.83-6-10.92-6.14-13.25a23.19,23.19,0,0,1,0-3.9,29.89,29.89,0,0,1,4.87-13.6,1.2,1.2,0,0,1,1.68-.36,1.23,1.23,0,0,1,.35,1.7,27.58,27.58,0,0,0-4.48,12.48,21.37,21.37,0,0,0,0,3.48c.17,2.26.65,8.27,5.11,11.44a11.88,11.88,0,0,0,8.27,1.79,1.21,1.21,0,0,1,1.35,1.06,1.22,1.22,0,0,1-1,1.38A17.32,17.32,0,0,1,511.14,191.22Z"/><path class="cls-1" d="M520.09,247.33a1.23,1.23,0,0,1-1-1.94l3.7-5.27a7.91,7.91,0,0,0,0-9.1,10.41,10.41,0,0,1,0-12,7.91,7.91,0,0,0,0-9.1,10.41,10.41,0,0,1,0-12,7.91,7.91,0,0,0,0-9.1,10.39,10.39,0,0,1,0-12,7.92,7.92,0,0,0,0-9.11l-3.7-5.26a1.24,1.24,0,0,1,.28-1.72,1.21,1.21,0,0,1,1.69.29l3.71,5.27a10.42,10.42,0,0,1,0,12,7.91,7.91,0,0,0,0,9.1,10.44,10.44,0,0,1,0,12,7.91,7.91,0,0,0,0,9.1,10.44,10.44,0,0,1,0,12,7.91,7.91,0,0,0,0,9.1,10.44,10.44,0,0,1,0,12l-3.71,5.26A1.19,1.19,0,0,1,520.09,247.33Z"/><path class="cls-1" d="M527.66,247.33a1.23,1.23,0,0,1-1-1.94l3.71-5.27a7.94,7.94,0,0,0,0-9.1,10.41,10.41,0,0,1,0-12,7.94,7.94,0,0,0,0-9.1,10.41,10.41,0,0,1,0-12,7.94,7.94,0,0,0,0-9.1,10.39,10.39,0,0,1,0-12,8,8,0,0,0,0-9.11l-3.71-5.26a1.24,1.24,0,0,1,.29-1.72,1.21,1.21,0,0,1,1.69.29l3.7,5.27a10.39,10.39,0,0,1,0,12,7.94,7.94,0,0,0,0,9.1,10.41,10.41,0,0,1,0,12,7.94,7.94,0,0,0,0,9.1,10.41,10.41,0,0,1,0,12,7.94,7.94,0,0,0,0,9.1,10.41,10.41,0,0,1,0,12l-3.7,5.26A1.21,1.21,0,0,1,527.66,247.33Z"/><path class="cls-1" d="M534.73,247.33a1.25,1.25,0,0,1-.71-.23,1.24,1.24,0,0,1-.28-1.71l3.7-5.27a7.91,7.91,0,0,0,0-9.1,10.44,10.44,0,0,1,0-12,7.91,7.91,0,0,0,0-9.1,10.44,10.44,0,0,1,0-12,7.91,7.91,0,0,0,0-9.1,10.42,10.42,0,0,1,0-12,7.92,7.92,0,0,0,0-9.11l-5.4-7.68a1.24,1.24,0,0,1,.28-1.71,1.21,1.21,0,0,1,1.7.28l5.4,7.69a10.39,10.39,0,0,1,0,12,7.93,7.93,0,0,0,0,9.1,10.41,10.41,0,0,1,0,12,7.93,7.93,0,0,0,0,9.1,10.41,10.41,0,0,1,0,12,7.93,7.93,0,0,0,0,9.1,10.41,10.41,0,0,1,0,12l-3.7,5.26A1.21,1.21,0,0,1,534.73,247.33Z"/><path class="cls-1" d="M534.73,247.33H512.17a1.23,1.23,0,0,1,0-2.46h22.56a1.23,1.23,0,0,1,0,2.46Z"/><path class="cls-1" d="M506.22,231.24c.34.79.66,1.63,1,2.51a9.37,9.37,0,0,1-2.11,1.38c-.27-.82-.55-1.58-.85-2.33-.42-1.07-.86-2.07-1.33-3-.26-.49-.52-1-.79-1.48-1.73-3.23-3.69-6.88-2.74-11.26a9.62,9.62,0,0,1,1.53-3.41c.61-1,1.43-2.36,2.68-4.75,2.18-4.13,3.26-6.21,4-8.92a25.58,25.58,0,0,0,.66-9.94,1.23,1.23,0,0,1,1.06-1.37,1.22,1.22,0,0,1,1.35,1.07,28.29,28.29,0,0,1-.73,10.92c-.82,3-2,5.24-4.2,9.39-1.28,2.45-2.17,3.92-2.76,4.88a7.3,7.3,0,0,0-1.23,2.65c-.75,3.5.9,6.58,2.49,9.55.29.52.56,1,.82,1.55Q505.67,229.89,506.22,231.24Z"/><path class="cls-1" d="M547.19,245.24a1.24,1.24,0,0,1-1,.78c-8.54.63-14.76,9.26-14.83,9.34a1.22,1.22,0,0,1-1,.51,1.2,1.2,0,0,1-.68-.22c-7.19-4.89-19.64-3-19.76-3a1.22,1.22,0,0,1-1.39-1.08c-.18-1.47-.38-2.91-.59-4.29-.13-.87-.28-1.71-.42-2.53a12.82,12.82,0,0,0,1.21-.72,9.71,9.71,0,0,0,1-.72c.17.87.32,1.77.46,2.69.23,1.31.43,2.67.61,4.06,3.35-.36,12.67-.95,19.28,2.91,1.8-2.21,6.9-7.73,13.81-9.15A65,65,0,0,1,538.45,233a1.23,1.23,0,0,1,.66-1.61,1.21,1.21,0,0,1,1.58.68c3.7,9,6.24,11.85,6.26,11.89A1.24,1.24,0,0,1,547.19,245.24Z"/><path class="cls-1" d="M500.72,312.21a5.17,5.17,0,0,1-2.53-.64,6.9,6.9,0,0,1-3.09-7.51c1.06-4.58,6.4-5.54,7.46-5.69a10.29,10.29,0,0,1,7.05,1.72,53.49,53.49,0,0,0,2.24-16.53c-.59-10.72-1.76-21.8-3.49-32.93a1.22,1.22,0,0,1,1-1.4,1.2,1.2,0,0,1,1.38,1c1.74,11.21,2.92,22.37,3.51,33.17a53.39,53.39,0,0,1-3.54,20.77,12.92,12.92,0,0,1-4.31,5.75A10,10,0,0,1,500.72,312.21Zm3.14-11.47a6.42,6.42,0,0,0-1,.07c-.48.07-4.72.74-5.43,3.81a4.51,4.51,0,0,0,1.87,4.79c2.1,1.13,4.79-.83,5.68-1.47a10.56,10.56,0,0,0,3.47-4.68c.11-.25.2-.5.3-.75A8.23,8.23,0,0,0,503.86,300.74Z"/><path class="cls-1" d="M504,350.09a30.14,30.14,0,0,1-20.43-7.36c-10.59-9.34-14.24-25.34-8.5-37.24a28.6,28.6,0,0,1,20.49-15.67,24.92,24.92,0,0,1,16.34,2.64,1.24,1.24,0,0,1,.55,1.65,1.2,1.2,0,0,1-1.62.56A22.45,22.45,0,0,0,496,292.24a26.23,26.23,0,0,0-18.71,14.33c-5.27,10.93-1.87,25.68,7.91,34.3,13.1,11.55,30.87,5.12,34.3,3.72,8.46-3.48,13.2-9.38,16.66-13.69l.4-.49c17.87-22.18,13.66-55.34,12.08-67.82l-.11-.87a105.74,105.74,0,0,0-3.6-16.59,1.22,1.22,0,0,1,.83-1.52,1.21,1.21,0,0,1,1.5.83,109.83,109.83,0,0,1,3.68,17l.1.87c1.62,12.77,5.93,46.68-12.6,69.68l-.39.5c-3.43,4.26-8.6,10.7-17.64,14.4A45.36,45.36,0,0,1,504,350.09Z"/><path class="cls-1" d="M499.36,325.93c-4,0-8.87-1.05-12.08-5.31a14.5,14.5,0,0,1-.42-16.34c2.15-3.32,6.62-6.11,11.12-6.93a14.16,14.16,0,0,1,11.26,2.51,1.24,1.24,0,0,1,.26,1.72,1.21,1.21,0,0,1-1.7.27,11.84,11.84,0,0,0-9.39-2.08,15.22,15.22,0,0,0-9.52,5.86,12.13,12.13,0,0,0,.33,13.5c5.17,6.88,16,3.61,16.44,3.46,1-.32,6.35-2.22,11.26-8.55,7.47-9.62,8.63-18.2,9.24-26.87.53-7.53-.75-21.15-4.8-34.61a1.25,1.25,0,0,1,.81-1.54,1.2,1.2,0,0,1,1.51.82c4.14,13.76,5.44,27.75,4.9,35.51-.64,9.06-1.86,18-9.75,28.21-5.22,6.73-10.85,8.88-12.46,9.38A25.58,25.58,0,0,1,499.36,325.93Z"/><path class="cls-1" d="M501.34,336.79a19.33,19.33,0,0,1-12.24-3.94c-5-4-9.44-12.12-7.27-20.66,2.26-8.89,10.21-12.75,11.79-13.43a1.2,1.2,0,0,1,1.59.64,1.24,1.24,0,0,1-.64,1.62c-1.39.6-8.41,4-10.38,11.78-1.9,7.47,2,14.63,6.4,18.11,8.82,6.95,22.78,1.63,28.93-2.16,8.5-5.23,17.78-18.51,19.36-36.41,1.33-15-2.11-35.7-4.16-42.94a1.21,1.21,0,1,1,2.33-.68c2.09,7.39,5.61,28.51,4.25,43.84-1.19,13.51-8,30.59-20.52,38.29C516.28,333.62,508.75,336.78,501.34,336.79Z"/><path class="cls-1" d="M546.06,317.3a1.23,1.23,0,0,1,0-2.46c15.78-.26,28.05-5.21,36.47-14.71,13.11-14.78,13.06-36.4,12.84-41.56-30.85.66-42.55,27.81-42.67,28.09a1.2,1.2,0,0,1-1.59.65,1.24,1.24,0,0,1-.64-1.61c.12-.29,12.69-29.6,46-29.6a1.23,1.23,0,0,1,1.21,1.12c.1,1.09,2.24,26.94-13.37,44.54-8.9,10-21.76,15.26-38.25,15.54Z"/><path class="cls-1" d="M581.45,379.73l-.25,0a67.51,67.51,0,0,1-21.12-9.29c-9.87-6.52-22-18.6-23.82-39.12a1.21,1.21,0,1,1,2.42-.21c3,33.83,35.4,44.19,41.89,45.93,4.14-17,1.93-32.39-6.58-45.9a55.51,55.51,0,0,0-14.57-15.65,1.24,1.24,0,0,1-.36-1.7,1.2,1.2,0,0,1,1.67-.37A56.62,56.62,0,0,1,576,329.7c6.28,9.92,12.53,26.5,6.65,49.11A1.21,1.21,0,0,1,581.45,379.73Z"/><path class="cls-1" d="M503.59,172s1.9-3,7.56-1.61C511.15,170.36,508,174.13,503.59,172Z"/><path class="cls-1" d="M507.55,167.7a15,15,0,0,1,6.08-1c-4.22-.69-6.73-.45-8.23.15a3.47,3.47,0,0,0-2.07,2.57,5.19,5.19,0,0,0,.26,2.59,6.78,6.78,0,0,1,2.36-.72l.17-1.54A2.48,2.48,0,0,1,507.55,167.7Z"/><path class="cls-1" d="M499,180.48s2.69,2.18,6.7.18a5.84,5.84,0,0,1-5.24,2.48Z"/><path class="cls-1" d="M551.14,296.64a1.2,1.2,0,0,1-.6-.16,1.25,1.25,0,0,1-.45-1.68c.15-.26,14.86-25.34,45.57-23.23a1.22,1.22,0,0,1,1.13,1.31A1.2,1.2,0,0,1,595.5,274c-29.2-2-43.17,21.77-43.31,22A1.2,1.2,0,0,1,551.14,296.64Z"/><path class="cls-1" d="M549.78,304.72a1.2,1.2,0,0,1-.88-.38,1.23,1.23,0,0,1,0-1.74c.76-.73,18.92-17.92,41.58-14.4a1.23,1.23,0,0,1-.36,2.43c-21.47-3.33-39.37,13.58-39.55,13.75A1.16,1.16,0,0,1,549.78,304.72Z"/><path class="cls-1" d="M547.15,316.49a1.15,1.15,0,0,1-.7-.23,1.24,1.24,0,0,1-.28-1.71c.11-.17,12-16.62,34.79-12.85a1.23,1.23,0,0,1-.39,2.43,33.88,33.88,0,0,0-24.25,4.56,31,31,0,0,0-8.18,7.29A1.21,1.21,0,0,1,547.15,316.49Z"/><path class="cls-1" d="M572.79,329.41h0a27.5,27.5,0,0,1-21.93-12.55,1.24,1.24,0,0,1,.35-1.7,1.19,1.19,0,0,1,1.68.35,25.46,25.46,0,0,0,7.5,7.48,25.19,25.19,0,0,0,12.5,4,1.24,1.24,0,0,1,1.17,1.28A1.22,1.22,0,0,1,572.79,329.41Z"/><path class="cls-1" d="M581.91,347.72h-.06c-4.44-.21-24.51-4.31-34.33-19.32a31.33,31.33,0,0,1-3.72-8,1.24,1.24,0,0,1,.8-1.54,1.21,1.21,0,0,1,1.52.81,28.9,28.9,0,0,0,3.42,7.33c9.27,14.15,28.23,18,32.42,18.22a1.23,1.23,0,0,1-.05,2.46Z"/><path class="cls-1" d="M583.11,362.51H583c-19.2-1.56-30-10.77-35.66-18.22a43.15,43.15,0,0,1-7.79-16,1.23,1.23,0,0,1,1-1.44,1.2,1.2,0,0,1,1.43,1c.25,1.2,6.34,29.44,41.26,32.29a1.23,1.23,0,0,1-.09,2.45Z"/><path class="cls-1" d="M544.08,155.45a.82.82,0,0,1-.81-.81l-.11-8.3a.8.8,0,0,1,.79-.83.82.82,0,0,1,.83.8l.11,8.31a.81.81,0,0,1-.8.83Z"/><path class="cls-1" d="M545.87,169.26h-3.42a.83.83,0,0,1-.59-.25.81.81,0,0,1-.22-.6l.45-13.54a.82.82,0,0,1,.81-.79h2.4a.81.81,0,0,1,.8.79l.57,13.54a.83.83,0,0,1-.22.6A.79.79,0,0,1,545.87,169.26Zm-2.59-1.64H545l-.5-11.9h-.83Z"/><path class="cls-1" d="M517.92,234.05c-.52,2.39-2.3,8.32-7.75,12a.43.43,0,0,1-.13.09,15.92,15.92,0,0,1-2.11,1.19,17.71,17.71,0,0,1-7.52,1.57,33,33,0,0,1-5-.44c-11.64-1.64-19.29-10-23-15.06l-2.62-.42a6.92,6.92,0,0,1-9.58-6.69,5.3,5.3,0,0,1,5.27-5.09h1a3.24,3.24,0,0,1,3.19-3.1l3.16,0c3,0,6.07,2.05,8.22,5.47a22.27,22.27,0,0,0,9.5,8.57,22,22,0,0,0,11.81,1.3,5.48,5.48,0,0,0,1.79-.6,6.19,6.19,0,0,0,2-1.56,6.64,6.64,0,0,0,1.57-4.32V212.56c0-5.65,2.12-8.5,6.33-8.5a1.22,1.22,0,0,1,1.2,1.24v.1a1.21,1.21,0,0,1-1.2,1.23,1.33,1.33,0,0,1-.49-.09c-1.83.13-3.42,1.13-3.42,6v14.36a9.14,9.14,0,0,1-3,6.83,9.37,9.37,0,0,1-2.11,1.38,8.79,8.79,0,0,1-2.25.69,24.34,24.34,0,0,1-13.19-1.47,24.64,24.64,0,0,1-10.56-9.5c-1.7-2.71-4-4.33-6.15-4.33l-3.17,0a.81.81,0,0,0-.78.81V222a1.67,1.67,0,0,1-1.66,1.69h-1.77a2.91,2.91,0,0,0-2.85,2.71,4.53,4.53,0,0,0,2,3.91,4.59,4.59,0,0,0,4.56.3,1.23,1.23,0,0,1,.68-.1l3.46.58a1.2,1.2,0,0,1,.79.5c3.33,4.74,10.57,12.9,21.62,14.47,3,.43,7.4,1,11.74-1.23a12.82,12.82,0,0,0,1.21-.72,9.71,9.71,0,0,0,1-.72,17.51,17.51,0,0,0,5.84-9.82,1.21,1.21,0,1,1,2.37.52Z"/><path class="cls-1" d="M512.17,247.33a1.2,1.2,0,0,1-.7-.23,1.23,1.23,0,0,1-.29-1.71l3.7-5.27a7.93,7.93,0,0,0,0-9.1,10.42,10.42,0,0,1,0-12,7.93,7.93,0,0,0,0-9.1,10.42,10.42,0,0,1,0-12,7.93,7.93,0,0,0,0-9.1,10.41,10.41,0,0,1,0-12,7.94,7.94,0,0,0,0-9.11l-3.71-5.26,2-1.43,3.7,5.27a10.39,10.39,0,0,1,0,12,7.94,7.94,0,0,0,0,9.1,10.41,10.41,0,0,1,0,12,7.94,7.94,0,0,0,0,9.1,10.41,10.41,0,0,1,0,12,7.94,7.94,0,0,0,0,9.1,10.41,10.41,0,0,1,0,12l-3.7,5.26A1.21,1.21,0,0,1,512.17,247.33Z"/><path class="cls-1" d="M328.94,158.17a1.15,1.15,0,0,1-.48-.1l-28.32-12.58a1.24,1.24,0,0,1,0-2.27l28.32-11.31a1.24,1.24,0,0,1,.89,0l28.31,11.31a1.23,1.23,0,0,1,0,2.27l-28.31,12.58A1.16,1.16,0,0,1,328.94,158.17Zm-25.15-13.75,25.15,11.18,25.16-11.18-25.16-10Z"/><path class="cls-1" d="M329.53,163.11l-1,0a39.06,39.06,0,0,1-14.47-3.17,1.23,1.23,0,0,1-.74-1.13v-7.85a1.21,1.21,0,1,1,2.42,0v7a36.57,36.57,0,0,0,27.54,0v-7a1.22,1.22,0,1,1,2.43,0v7.85a1.23,1.23,0,0,1-.74,1.13A39,39,0,0,1,329.53,163.11Z"/><path class="cls-1" d="M336.42,191.22a17.32,17.32,0,0,1-2.1-.13,1.23,1.23,0,0,1,.3-2.44,11.88,11.88,0,0,0,8.27-1.79c4.46-3.17,4.94-9.18,5.11-11.44a21.37,21.37,0,0,0,0-3.48,27.58,27.58,0,0,0-4.48-12.48,1.23,1.23,0,0,1,.35-1.7,1.2,1.2,0,0,1,1.68.36,29.89,29.89,0,0,1,4.87,13.6,23.19,23.19,0,0,1,0,3.9c-.18,2.33-.74,9.42-6.14,13.25A13.49,13.49,0,0,1,336.42,191.22Z"/><path class="cls-1" d="M327.46,247.33a1.22,1.22,0,0,1-1-.52l-3.7-5.26a10.44,10.44,0,0,1,0-12,7.91,7.91,0,0,0,0-9.1,10.44,10.44,0,0,1,0-12,7.91,7.91,0,0,0,0-9.1,10.44,10.44,0,0,1,0-12,7.91,7.91,0,0,0,0-9.1,10.42,10.42,0,0,1,0-12l3.7-5.27a1.22,1.22,0,0,1,1.7-.29,1.25,1.25,0,0,1,.28,1.72l-3.7,5.26a7.92,7.92,0,0,0,0,9.11,10.42,10.42,0,0,1,0,12,7.91,7.91,0,0,0,0,9.1,10.44,10.44,0,0,1,0,12,7.91,7.91,0,0,0,0,9.1,10.44,10.44,0,0,1,0,12,7.91,7.91,0,0,0,0,9.1l3.7,5.27a1.24,1.24,0,0,1-.28,1.71A1.25,1.25,0,0,1,327.46,247.33Z"/><path class="cls-1" d="M319.9,247.33a1.19,1.19,0,0,1-1-.52l-3.71-5.26a10.44,10.44,0,0,1,0-12,7.91,7.91,0,0,0,0-9.1,10.44,10.44,0,0,1,0-12,7.91,7.91,0,0,0,0-9.1,10.44,10.44,0,0,1,0-12,7.91,7.91,0,0,0,0-9.1,10.42,10.42,0,0,1,0-12l3.71-5.27a1.21,1.21,0,0,1,1.69-.29,1.25,1.25,0,0,1,.29,1.72l-3.71,5.26a8,8,0,0,0,0,9.11,10.39,10.39,0,0,1,0,12,7.94,7.94,0,0,0,0,9.1,10.41,10.41,0,0,1,0,12,7.94,7.94,0,0,0,0,9.1,10.41,10.41,0,0,1,0,12,7.94,7.94,0,0,0,0,9.1l3.71,5.27a1.24,1.24,0,0,1-.29,1.71A1.22,1.22,0,0,1,319.9,247.33Z"/><path class="cls-1" d="M312.83,247.33a1.21,1.21,0,0,1-1-.52l-3.7-5.26a10.41,10.41,0,0,1,0-12,7.94,7.94,0,0,0,0-9.1,10.41,10.41,0,0,1,0-12,7.94,7.94,0,0,0,0-9.1,10.41,10.41,0,0,1,0-12,7.94,7.94,0,0,0,0-9.1,10.39,10.39,0,0,1,0-12l5.4-7.69a1.21,1.21,0,0,1,1.7-.28,1.24,1.24,0,0,1,.28,1.71l-5.4,7.68a7.92,7.92,0,0,0,0,9.11,10.42,10.42,0,0,1,0,12,7.91,7.91,0,0,0,0,9.1,10.44,10.44,0,0,1,0,12,7.91,7.91,0,0,0,0,9.1,10.44,10.44,0,0,1,0,12,7.91,7.91,0,0,0,0,9.1l3.7,5.27a1.24,1.24,0,0,1-.28,1.71A1.25,1.25,0,0,1,312.83,247.33Z"/><path class="cls-1" d="M335.39,247.33H312.83a1.23,1.23,0,0,1,0-2.46h22.56a1.23,1.23,0,0,1,0,2.46Z"/><path class="cls-1" d="M338.84,244.07a12.82,12.82,0,0,0,1.21.72c-.14.82-.29,1.66-.42,2.53,0,.22-.07.44-.11.68-.12.77-.22,1.56-.33,2.36l-.15,1.25a1.22,1.22,0,0,1-.47.84s0,0,0,0a1.16,1.16,0,0,1-.89.21s-.44-.07-1.19-.14a41.37,41.37,0,0,0-10.3.16,26.27,26.27,0,0,0-2.69.56,17.29,17.29,0,0,0-5.57,2.38,1.2,1.2,0,0,1-.68.22,1.22,1.22,0,0,1-1-.51,28,28,0,0,0-3.86-4.12c-.64-.56-1.33-1.13-2.09-1.68a18.32,18.32,0,0,0-7.9-3.43c-.32,0-.65-.09-1-.11a1.24,1.24,0,0,1-1-.79,1.43,1.43,0,0,1-.06-.68.19.19,0,0,1,0-.1s0,0,0,0a.42.42,0,0,1,.06-.14,1.57,1.57,0,0,1,.24-.37c.31-.36,2.76-3.36,6.22-11.82,0,0,0,0,0,0a1.21,1.21,0,0,1,1.58-.68,1.23,1.23,0,0,1,.66,1.61c-.87,2.15-1.7,4-2.43,5.49a50.35,50.35,0,0,1-3,5.38c6.91,1.42,12,6.94,13.81,9.15,6.61-3.86,15.93-3.29,19.28-2.91.18-1.4.38-2.76.59-4.07.16-.92.31-1.82.48-2.68A9.71,9.71,0,0,0,338.84,244.07Z"/><path class="cls-1" d="M345.45,228.33c-.27.49-.53,1-.79,1.48-.47.92-.91,1.92-1.33,3-.3.75-.58,1.51-.84,2.33a8.67,8.67,0,0,1-2.12-1.4q.47-1.3,1-2.49c.38-.9.77-1.75,1.18-2.55.26-.51.53-1,.82-1.55,1.59-3,3.24-6,2.49-9.55a7.66,7.66,0,0,0-1.23-2.65c-.59-1-1.48-2.43-2.76-4.88-2.18-4.15-3.38-6.44-4.2-9.39a27.43,27.43,0,0,1-.86-9.46c0-.49.07-1,.13-1.46a1.22,1.22,0,0,1,1.35-1.07,1.23,1.23,0,0,1,1.06,1.37c0,.31-.07.6-.09.91a24.94,24.94,0,0,0,.75,9c.75,2.71,1.83,4.79,4,8.92.08.14.15.27.21.4.48.9.89,1.64,1.25,2.27.49.87.89,1.53,1.23,2.08s.65,1.07.87,1.52a7.22,7.22,0,0,1,.66,1.89,2.89,2.89,0,0,1,.08.5C349,221.72,347.1,225.22,345.45,228.33Z"/><path class="cls-1" d="M346.84,312.21a10,10,0,0,1-5.7-2.27,12.92,12.92,0,0,1-4.31-5.75,53.71,53.71,0,0,1-3.55-20.77c.6-10.81,1.78-22,3.52-33.17a1.21,1.21,0,1,1,2.39.38c-1.72,11.12-2.89,22.2-3.48,32.93A53.14,53.14,0,0,0,338,300.09a10.31,10.31,0,0,1,7.05-1.72c1.06.15,6.4,1.11,7.46,5.69a6.9,6.9,0,0,1-3.09,7.51A5.17,5.17,0,0,1,346.84,312.21Zm-8.06-9.7.29.75a10.69,10.69,0,0,0,3.48,4.68c.89.64,3.58,2.6,5.68,1.47a4.51,4.51,0,0,0,1.87-4.79c-.71-3.07-5-3.74-5.43-3.81A8,8,0,0,0,338.78,302.51Z"/><path class="cls-1" d="M343.55,350.09a45.31,45.31,0,0,1-16.37-3.23c-9-3.7-14.22-10.14-17.64-14.4l-.39-.5c-18.53-23-14.23-56.91-12.61-69.68l.11-.87a106.94,106.94,0,0,1,3.68-17,1.2,1.2,0,0,1,1.5-.83,1.22,1.22,0,0,1,.83,1.52,106,106,0,0,0-3.6,16.59l-.11.87c-1.58,12.48-5.79,45.64,12.08,67.82l.4.49c3.46,4.31,8.2,10.21,16.66,13.69,3.43,1.4,21.2,7.83,34.29-3.72,9.79-8.62,13.19-23.37,7.91-34.3a26.21,26.21,0,0,0-18.71-14.33,22.41,22.41,0,0,0-14.84,2.42l-1.1-2.19A24.89,24.89,0,0,1,352,289.82a28.6,28.6,0,0,1,20.49,15.67c5.74,11.9,2.09,27.91-8.5,37.24A30.14,30.14,0,0,1,343.55,350.09Z"/><path class="cls-1" d="M348.19,325.93a25.75,25.75,0,0,1-7-1c-1.6-.5-7.23-2.65-12.45-9.38-7.89-10.17-9.12-19.15-9.75-28.21-.55-7.76.76-21.75,4.89-35.51a1.22,1.22,0,0,1,1.52-.82,1.25,1.25,0,0,1,.81,1.54c-4.05,13.46-5.33,27.08-4.8,34.61.61,8.67,1.77,17.25,9.24,26.87,4.91,6.33,10.24,8.23,11.26,8.55.46.15,11.27,3.42,16.44-3.46a12.15,12.15,0,0,0,.33-13.5,15.22,15.22,0,0,0-9.53-5.86,11.82,11.82,0,0,0-9.38,2.08,1.21,1.21,0,0,1-1.7-.27,1.24,1.24,0,0,1,.26-1.72,14.18,14.18,0,0,1,11.25-2.51c4.51.82,9,3.61,11.13,6.93a14.5,14.5,0,0,1-.43,16.34C357.07,324.88,352.21,325.93,348.19,325.93Z"/><path class="cls-1" d="M346.22,336.79c-7.42,0-14.94-3.17-19.44-5.94-12.52-7.7-19.33-24.78-20.52-38.29-1.36-15.33,2.15-36.45,4.25-43.84a1.2,1.2,0,0,1,1.5-.84,1.22,1.22,0,0,1,.83,1.52c-2,7.24-5.49,27.93-4.17,42.94,1.59,17.89,10.87,31.18,19.37,36.41,6.15,3.79,20.11,9.11,28.93,2.16,4.41-3.48,8.3-10.64,6.4-18.11-2-7.78-9-11.18-10.38-11.78a1.24,1.24,0,0,1-.64-1.62,1.2,1.2,0,0,1,1.59-.64c1.58.68,9.53,4.54,11.78,13.43,2.17,8.54-2.24,16.7-7.26,20.66A19.39,19.39,0,0,1,346.22,336.79Z"/><path class="cls-1" d="M301.49,317.3h0c-16.48-.28-29.35-5.5-38.24-15.54-15.61-17.6-13.47-43.45-13.37-44.54a1.23,1.23,0,0,1,1.21-1.12c33.35,0,45.92,29.31,46,29.6a1.24,1.24,0,0,1-.64,1.61,1.2,1.2,0,0,1-1.59-.65c-.12-.28-11.82-27.43-42.67-28.09-.22,5.16-.27,26.78,12.84,41.56,8.42,9.5,20.69,14.45,36.46,14.71a1.23,1.23,0,0,1,0,2.46Z"/><path class="cls-1" d="M266.11,379.73a1.23,1.23,0,0,1-1.18-.92c-5.88-22.61.38-39.19,6.66-49.11a56.62,56.62,0,0,1,15.24-16.31,1.2,1.2,0,0,1,1.67.37,1.24,1.24,0,0,1-.36,1.7,55.51,55.51,0,0,0-14.57,15.65c-8.51,13.51-10.72,28.94-6.58,45.9,6.49-1.75,38.91-12.14,41.89-45.93a1.21,1.21,0,1,1,2.42.21c-1.81,20.52-13.95,32.6-23.82,39.12a67.41,67.41,0,0,1-21.13,9.29A1,1,0,0,1,266.11,379.73Z"/><path class="cls-1" d="M344,172s-1.9-3-7.56-1.61C336.41,170.36,339.56,174.13,344,172Z"/><path class="cls-1" d="M340,167.7a15,15,0,0,0-6.08-1c4.21-.69,6.73-.45,8.23.15a3.47,3.47,0,0,1,2.07,2.57A5.17,5.17,0,0,1,344,172a6.7,6.7,0,0,0-2.35-.72l-.17-1.54A2.48,2.48,0,0,0,340,167.7Z"/><path class="cls-1" d="M348.57,180.48s-2.69,2.18-6.7.18a5.84,5.84,0,0,0,5.24,2.48Z"/><path class="cls-1" d="M296.42,296.64a1.23,1.23,0,0,1-1.06-.61c-.13-.24-14.13-24-43.3-22a1.23,1.23,0,0,1-.16-2.45c30.69-2.1,45.42,23,45.56,23.23a1.24,1.24,0,0,1-.44,1.68A1.2,1.2,0,0,1,296.42,296.64Z"/><path class="cls-1" d="M297.78,304.72a1.16,1.16,0,0,1-.83-.34c-.18-.17-18.08-17.08-39.55-13.75a1.23,1.23,0,0,1-.36-2.43c22.66-3.52,40.82,13.67,41.58,14.4a1.25,1.25,0,0,1,0,1.74A1.22,1.22,0,0,1,297.78,304.72Z"/><path class="cls-1" d="M300.4,316.49a1.22,1.22,0,0,1-1-.51c-.12-.17-11.15-15.37-32.42-11.85a1.23,1.23,0,0,1-.39-2.43c22.81-3.77,34.67,12.68,34.79,12.85a1.24,1.24,0,0,1-.28,1.71A1.18,1.18,0,0,1,300.4,316.49Z"/><path class="cls-1" d="M274.77,329.41a1.23,1.23,0,0,1-.06-2.45,25.12,25.12,0,0,0,20-11.45,1.19,1.19,0,0,1,1.68-.35,1.23,1.23,0,0,1,.34,1.7,27.45,27.45,0,0,1-21.92,12.55Z"/><path class="cls-1" d="M265.65,347.72a1.23,1.23,0,0,1-.06-2.46c4.2-.2,23.16-4.07,32.43-18.22a28.9,28.9,0,0,0,3.42-7.33,1.21,1.21,0,0,1,1.52-.81,1.24,1.24,0,0,1,.8,1.54,31.49,31.49,0,0,1-3.72,8c-9.82,15-29.89,19.11-34.33,19.32Z"/><path class="cls-1" d="M264.45,362.51a1.21,1.21,0,0,1-1.21-1.13,1.23,1.23,0,0,1,1.12-1.32c35-2.85,41.2-32,41.26-32.29a1.21,1.21,0,1,1,2.37.48c-.06.32-6.65,31.26-43.44,34.26Z"/><path class="cls-1" d="M303.48,155.45h0a.81.81,0,0,1-.8-.83l.11-8.31a.81.81,0,0,1,.81-.8h0a.8.8,0,0,1,.8.83l-.11,8.3A.82.82,0,0,1,303.48,155.45Z"/><path class="cls-1" d="M305.11,169.26h-3.42a.79.79,0,0,1-.58-.25.83.83,0,0,1-.22-.6l.56-13.54a.82.82,0,0,1,.81-.79h2.4a.81.81,0,0,1,.8.79l.46,13.54a.78.78,0,0,1-.23.6A.79.79,0,0,1,305.11,169.26Zm-2.57-1.64h1.73l-.4-11.9H303Z"/><path class="cls-1" d="M387.28,226.28A6.92,6.92,0,0,1,377.7,233l-2.62.42c-3.68,5.1-11.34,13.42-23,15.06a33.08,33.08,0,0,1-5,.44,17.71,17.71,0,0,1-7.52-1.57,16.68,16.68,0,0,1-2.12-1.19.94.94,0,0,1-.14-.1,9.46,9.46,0,0,1-1.14-.86,19.94,19.94,0,0,1-6.59-11.12,1.23,1.23,0,0,1,.92-1.46,1.2,1.2,0,0,1,1.13.35,1.18,1.18,0,0,1,.32.59,17.51,17.51,0,0,0,5.84,9.82,9.71,9.71,0,0,0,1,.72,12.82,12.82,0,0,0,1.21.72c4.34,2.28,8.74,1.66,11.74,1.23,11-1.57,18.28-9.73,21.61-14.47a1.25,1.25,0,0,1,.8-.5l3.46-.58a1.23,1.23,0,0,1,.68.1,4.55,4.55,0,0,0,4.55-.31,4.48,4.48,0,0,0,2-3.9,2.91,2.91,0,0,0-2.85-2.71h-1.77a1.67,1.67,0,0,1-1.66-1.69v-.61a.81.81,0,0,0-.79-.81l-3.17,0c-2.14,0-4.44,1.62-6.14,4.33a24.76,24.76,0,0,1-10.56,9.5,24.34,24.34,0,0,1-13.19,1.47,8.6,8.6,0,0,1-4.36-2.09,9.06,9.06,0,0,1-3-6.81V212.56c0-4.62-1.42-5.76-3.12-6a3,3,0,0,0-.31,0,1.24,1.24,0,0,1-.48.09,1.21,1.21,0,0,1-1.2-1.23v-.1a1.22,1.22,0,0,1,1.2-1.24,6.59,6.59,0,0,1,1.11.08c3.47.47,5.22,3.29,5.22,8.42v14.36a6.68,6.68,0,0,0,1.56,4.32,6.22,6.22,0,0,0,2,1.56,5.48,5.48,0,0,0,1.79.6,22,22,0,0,0,11.81-1.3,22.33,22.33,0,0,0,9.5-8.57c2.14-3.42,5.21-5.47,8.2-5.47l3.18,0a3.24,3.24,0,0,1,3.19,3.1h1A5.31,5.31,0,0,1,387.28,226.28Z"/><path class="cls-1" d="M335.39,247.33a1.21,1.21,0,0,1-1-.52l-3.7-5.26a10.41,10.41,0,0,1,0-12,7.94,7.94,0,0,0,0-9.1,10.41,10.41,0,0,1,0-12,7.94,7.94,0,0,0,0-9.1,10.41,10.41,0,0,1,0-12,7.94,7.94,0,0,0,0-9.1,10.39,10.39,0,0,1,0-12l3.7-5.27a1.21,1.21,0,0,1,1.69-.29,1.24,1.24,0,0,1,.29,1.72l-3.71,5.26a8,8,0,0,0,0,9.11,10.39,10.39,0,0,1,0,12,7.94,7.94,0,0,0,0,9.1,10.41,10.41,0,0,1,0,12,7.94,7.94,0,0,0,0,9.1,10.41,10.41,0,0,1,0,12,7.94,7.94,0,0,0,0,9.1l3.71,5.27a1.23,1.23,0,0,1-1,1.94Z"/><path class="cls-1" d="M424.3,226.41a1.25,1.25,0,0,1-.53-.13l-.17-.08a123,123,0,0,0-78.74-14.55,1.23,1.23,0,0,1-.34-2.44A126.82,126.82,0,0,1,397,212.5a124.55,124.55,0,0,1,27.31,11.28,124.8,124.8,0,0,1,27.16-11.2,126.88,126.88,0,0,1,52.47-3.29,1.23,1.23,0,0,1-.34,2.44A124.33,124.33,0,0,0,452.1,215a123,123,0,0,0-27.21,11.3A1.24,1.24,0,0,1,424.3,226.41Z"/><path class="cls-1" d="M424.65,232.59a1.12,1.12,0,0,1-.53-.13l-.16-.08a123,123,0,0,0-27.27-11.32c-22.12-6.19-38.48-4.93-48.87-3.44a1.21,1.21,0,0,1-1.37-1,1.23,1.23,0,0,1,1-1.39c10.6-1.52,27.3-2.81,49.86,3.5A124.93,124.93,0,0,1,424.64,230a124.85,124.85,0,0,1,27.17-11.19c23.42-6.55,39.14-5.45,48.92-4a1.23,1.23,0,0,1-.34,2.43c-9.57-1.37-24.95-2.45-47.94,4a122.66,122.66,0,0,0-27.21,11.29A1.11,1.11,0,0,1,424.65,232.59Z"/><path class="cls-1" d="M344.76,290.64a1.22,1.22,0,0,1-1.21-1.17,211.28,211.28,0,0,0-2.41-23.56c-.89-5.52-2-11.07-3.33-16.52a1.23,1.23,0,0,1,.89-1.48,1.21,1.21,0,0,1,1.47.9c1.34,5.5,2.47,11.13,3.36,16.71A213.52,213.52,0,0,1,346,289.35a1.23,1.23,0,0,1-1.16,1.29Z"/><path class="cls-1" d="M503.29,291.72h-.06a1.23,1.23,0,0,1-1.15-1.29,213.51,213.51,0,0,1,2.44-23.83c.9-5.59,2-11.21,3.36-16.72a1.22,1.22,0,0,1,1.47-.9,1.24,1.24,0,0,1,.89,1.49c-1.32,5.44-2.44,11-3.32,16.52a213.44,213.44,0,0,0-2.42,23.56A1.23,1.23,0,0,1,503.29,291.72Z"/><path class="cls-1" d="M461.4,244l-5.56,4.23,4.5,6a1.19,1.19,0,0,1,.23.91,1.17,1.17,0,0,1-.47.81l-5,3.8a1.22,1.22,0,0,1-1.71-.23L449,253.63,447.17,255l4.2,5.6a1.21,1.21,0,0,1,.24.92,1.24,1.24,0,0,1-.47.82l-3.94,3a1.21,1.21,0,0,1-1.7-.24l-4.14-5.52L434.17,265l-.07.06c-.37.28-2.31,1.87-4,3.28l-1.39,1.14-.59.45-2.41,1.83-2,1.53-15.12,11.49-.66.51a1.16,1.16,0,0,1-.72.24,1.21,1.21,0,0,1-1-.49,1.24,1.24,0,0,1,.24-1.72l.88-.67,14.35-10.92,2-1.53,2.38-1.81,1.11-.85.88-.72,1.85-1.51,1.9-1.56c.28-.21.52-.43.76-.58h0l.14-.09v0l8.17-6.21a1.2,1.2,0,0,1,1.69.24l4.15,5.52,2-1.52-4.2-5.6a1.25,1.25,0,0,1-.24-.92,1.27,1.27,0,0,1,.48-.81l3.74-2.85a1.21,1.21,0,0,1,1.7.24l4.43,5.9,3.06-2.31-4.5-6a1.25,1.25,0,0,1,.23-1.74l5.57-4.21-1.44-1.93-31.84,24.18-2,1.53-2.36,1.8-2,1.53-13.83,10.5-1.17.89a1.2,1.2,0,0,1-1.47,0,.05.05,0,0,0,0,0,1.19,1.19,0,0,1-.19-.2,1.23,1.23,0,0,1,.23-1.71l.77-.58,13.7-10.41,2-1.53,2.33-1.77,2-1.54L457,238.2a1.19,1.19,0,0,1,1.7.23l2.91,3.88a1.19,1.19,0,0,1,.23.91A1.21,1.21,0,0,1,461.4,244Z"/><path class="cls-1" d="M393.55,309.21A16.89,16.89,0,1,1,406.9,282.1a19.45,19.45,0,0,1,2.61,5.06,17.5,17.5,0,0,1,.77,4.24,17.24,17.24,0,0,1-1.48,7.92,17,17,0,0,1-1.3,2.36,18.87,18.87,0,0,1-3.86,4.13A16.65,16.65,0,0,1,393.55,309.21Zm-.1-31.38a14.35,14.35,0,0,0-14.19,12.45A14.48,14.48,0,0,0,382,301a14.33,14.33,0,0,0,20.14,2.84,16.42,16.42,0,0,0,3.3-3.53,13.62,13.62,0,0,0,1.11-2h0a15,15,0,0,0,1.26-6.77,14.26,14.26,0,0,0-.65-3.61h0a16.63,16.63,0,0,0-2.24-4.33A14.36,14.36,0,0,0,393.45,277.83Z"/><path class="cls-1" d="M393.44,303.79a11.3,11.3,0,0,1-7.24-19.91,12.7,12.7,0,0,1,2.5-1.6,11,11,0,0,1,3.51-1,11.3,11.3,0,0,1,5.28.72h0a11.38,11.38,0,0,1,2.23,1.19,12.68,12.68,0,0,1,2.24,2.05,11.32,11.32,0,0,1-1.34,15.89A11.08,11.08,0,0,1,393.44,303.79Zm-.09-20.09a7.28,7.28,0,0,0-.89.05,8.67,8.67,0,0,0-2.74.76,10.27,10.27,0,0,0-2,1.26,8.79,8.79,0,1,0,12.36,1.08,10.45,10.45,0,0,0-1.76-1.61,9.37,9.37,0,0,0-1.74-.93h0A9.1,9.1,0,0,0,393.35,283.7Z"/><path class="cls-1" d="M510.05,126.94a1.33,1.33,0,0,1-.76-.23,149.71,149.71,0,0,0-66.41-24.59,1.36,1.36,0,0,1,.31-2.71,152.58,152.58,0,0,1,67.63,25,1.36,1.36,0,0,1-.77,2.49Z"/><path class="cls-1" d="M340.94,127a1.37,1.37,0,0,1-.77-2.5,152.52,152.52,0,0,1,70-25.31,1.36,1.36,0,0,1,.27,2.71,149.78,149.78,0,0,0-68.74,24.86A1.36,1.36,0,0,1,340.94,127Z"/><path class="cls-1" d="M426.67,209.12a1.36,1.36,0,0,1-1.36-1.36V100.4a1.36,1.36,0,1,1,2.72,0V207.76A1.36,1.36,0,0,1,426.67,209.12Z"/><path class="cls-1" d="M411.77,205.8a1.35,1.35,0,0,1-1.34-1.11l-15.94-84.11a1.36,1.36,0,1,1,2.67-.5l15.94,84.11a1.36,1.36,0,0,1-1.08,1.59A1.1,1.1,0,0,1,411.77,205.8Z"/><path class="cls-1" d="M393.41,202.59a1.38,1.38,0,0,1-1.28-.88l-24.08-64.39a1.35,1.35,0,0,1,.79-1.75,1.36,1.36,0,0,1,1.76.79l24.08,64.39a1.36,1.36,0,0,1-.79,1.76A1.61,1.61,0,0,1,393.41,202.59Z"/><path class="cls-1" d="M375.78,203.36a1.37,1.37,0,0,1-1.22-.75l-19-37.66a1.36,1.36,0,0,1,2.43-1.23l19,37.66a1.37,1.37,0,0,1-1.21,2Z"/><path class="cls-1" d="M440.62,205.8a1.1,1.1,0,0,1-.25,0,1.36,1.36,0,0,1-1.08-1.59l15.94-84.11a1.36,1.36,0,1,1,2.67.5L442,204.69A1.35,1.35,0,0,1,440.62,205.8Z"/><path class="cls-1" d="M459,202.59a1.61,1.61,0,0,1-.48-.08,1.36,1.36,0,0,1-.79-1.76l24.08-64.39a1.36,1.36,0,0,1,2.55,1l-24.08,64.39A1.38,1.38,0,0,1,459,202.59Z"/><path class="cls-1" d="M476.61,203.36a1.37,1.37,0,0,1-1.21-2l19-37.66A1.36,1.36,0,0,1,496.8,165l-19,37.66A1.37,1.37,0,0,1,476.61,203.36Z"/><path class="cls-1" d="M402.42,371.73l-.11-.25c2.28-1.91,4.37-3.77,6.62-5.79,1.83-1.67,3.11-3.33,3.11-4.84a2.13,2.13,0,0,0-2.26-2.32c-1.53,0-2.46.85-2.46,1.59,0,.42.08.31.08.73s-.34.74-.91.74a.75.75,0,0,1-.83-.82c0-.94,1.74-2.5,4.29-2.5,2.12,0,3.84,1.33,3.84,2.94s-1.38,2.91-3.21,4.28L404,370.43v0h5.7c.83,0,1.51-.14,1.75-.84l.26-.73H412l-.85,2.83Z"/><path class="cls-1" d="M421.67,358.27c2.13,0,3.14,1.89,3.14,4.05,0,5-3.84,9.68-6.63,9.68-2,0-3.18-1.51-3.18-4.1C415,363.2,418.6,358.27,421.67,358.27Zm-3.53,13.46c3,0,5.32-8.63,5.32-10.84,0-1.61-.75-2.36-1.75-2.36-3.13,0-5.36,8.72-5.36,11.1C416.35,371,417.07,371.73,418.14,371.73Z"/><path class="cls-1" d="M423.63,371.73l-.11-.25c2.28-1.91,4.38-3.77,6.62-5.79,1.83-1.67,3.12-3.33,3.12-4.84a2.13,2.13,0,0,0-2.27-2.32c-1.53,0-2.46.85-2.46,1.59,0,.42.08.31.08.73s-.34.74-.91.74a.75.75,0,0,1-.83-.82c0-.94,1.74-2.5,4.29-2.5,2.12,0,3.84,1.33,3.84,2.94s-1.38,2.91-3.2,4.28l-6.58,4.94v0h5.7c.83,0,1.51-.14,1.75-.84l.26-.73h.33l-.86,2.83Z"/><path class="cls-1" d="M442.77,359.8a33,33,0,0,1-3.59,1.7l-.16-.23a21.72,21.72,0,0,0,5.47-3h.31l-4.21,13.19h2.33l-.08.27h-5.95l.09-.27h2.09Z"/><circle class="cls-1" cx="393.7" cy="363.76" r="1.49"/><circle class="cls-1" cx="453.07" cy="364.88" r="1.49"/><path class="cls-1" d="M425.43,387.51a143.49,143.49,0,0,1-86-28.31,1.47,1.47,0,0,1,1.74-2.36,141.76,141.76,0,0,0,168.29.13,1.47,1.47,0,1,1,1.74,2.36A143.46,143.46,0,0,1,425.43,387.51Z"/></svg>